<svg viewBox="0 0 27 27" xmlns="http://www.w3.org/2000/svg"> <g clip-path="url(#clip0_43_76)"><path d="M3.64554 6.86027C4.35054 6.36752 5.41329 6.46202 6.04629 6.98477L5.32029 5.92952C4.73604 5.09627 4.94529 4.19477 5.77929 3.60977C6.61329 3.02702 8.97654 4.59377 8.97654 4.59377C8.38704 3.75227 8.49729 2.68577 9.33879 2.09552C10.1803 1.50752 11.3413 1.71077 11.9308 2.55377L19.7458 13.5938L18.7498 23.25L10.4375 20.2185L3.18729 9.46877C2.59254 8.62202 2.79804 7.45427 3.64554 6.86027Z" fill="#EF9645"/> <path d="M2.02123 13.002C2.02123 13.002 1.17223 11.7645 2.41048 10.9162C3.64723 10.068 4.49548 11.3047 4.49548 11.3047L8.43373 17.0482C8.56948 16.8217 8.71798 16.5982 8.88373 16.3777L3.41773 8.4075C3.41773 8.4075 2.56948 7.17075 3.80698 6.3225C5.04373 5.47425 5.89198 6.711 5.89198 6.711L11.0332 14.2087C11.2245 14.0527 11.4202 13.896 11.622 13.7422L5.66173 5.049C5.66173 5.049 4.81348 3.81225 6.05098 2.964C7.28773 2.11575 8.13598 3.3525 8.13598 3.3525L14.0962 12.0442C14.3152 11.91 14.532 11.7937 14.7495 11.6707L9.17848 3.54675C9.17848 3.54675 8.33023 2.31 9.56698 1.46175C10.8037 0.613499 11.652 1.85025 11.652 1.85025L17.5425 10.4407L18.438 11.7472C14.727 14.2927 14.3737 19.0815 16.494 22.1737C16.9177 22.7925 17.5365 22.3687 17.5365 22.3687C14.9917 18.657 15.7687 14.4862 19.4805 11.9415L18.3862 6.465C18.3862 6.465 17.9775 5.022 19.4197 4.6125C20.8627 4.20375 21.2722 5.64675 21.2722 5.64675L22.536 9.39975C23.037 10.8877 23.5702 12.3705 24.276 13.773C26.2687 17.733 25.0785 22.6545 21.321 25.2323C17.2222 28.0425 11.619 26.9977 8.80798 22.8997L2.02123 13.002Z" fill="#FFDC5D"/> <path d="M8.99976 24.0315C5.99976 24.0315 2.96826 21 2.96826 18C2.96826 17.5853 2.66451 17.25 2.24976 17.25C1.83501 17.25 1.46826 17.5853 1.46826 18C1.46826 22.5 4.49976 25.5315 8.99976 25.5315C9.41451 25.5315 9.74976 25.1648 9.74976 24.75C9.74976 24.3353 9.41451 24.0315 8.99976 24.0315Z" fill="#5DADEC"/> <path d="M5.25 25.5C3 25.5 1.5 24 1.5 21.75C1.5 21.3353 1.16475 21 0.75 21C0.33525 21 0 21.3353 0 21.75C0 24.75 2.25 27 5.25 27C5.66475 27 6 26.6647 6 26.25C6 25.8353 5.66475 25.5 5.25 25.5ZM18 1.5C17.586 1.5 17.25 1.836 17.25 2.25C17.25 2.664 17.586 3 18 3C21 3 24 5.69175 24 9C24 9.414 24.336 9.75 24.75 9.75C25.164 9.75 25.5 9.414 25.5 9C25.5 4.8645 22.5 1.5 18 1.5Z" fill="#5DADEC"/> <path d="M21.75 0.0314941C21.336 0.0314941 21 0.335994 21 0.749994C21 1.16399 21.336 1.53149 21.75 1.53149C24 1.53149 25.4685 3.20024 25.4685 5.24999C25.4685 5.66399 25.8353 5.99999 26.25 5.99999C26.6647 5.99999 26.9685 5.66399 26.9685 5.24999C26.9685 2.37224 24.75 0.0314941 21.75 0.0314941Z" fill="#5DADEC"/> </g> <defs> <clipPath id="clip0_43_76"> <rect width="27" height="27" fill="white"/> </clipPath> </defs> </svg>
