<svg width="20" height="20" viewBox="0 0 20 20" xmlns="http://www.w3.org/2000/svg"> <path d="M11.9998 19.2498C12.6898 19.2498 13.2498 18.6898 13.2498 17.9998V15.0178L17.1158 18.8838C17.3502 19.1183 17.6682 19.25 17.9998 19.25C18.3313 19.25 18.6493 19.1183 18.8838 18.8838C19.1182 18.6494 19.2499 18.3314 19.2499 17.9998C19.2499 17.6683 19.1182 17.3503 18.8838 17.1158L15.0178 13.2498H17.9998C18.3313 13.2498 18.6492 13.1182 18.8836 12.8837C19.1181 12.6493 19.2498 12.3314 19.2498 11.9998C19.2498 11.6683 19.1181 11.3504 18.8836 11.116C18.6492 10.8815 18.3313 10.7498 17.9998 10.7498H11.9998C11.3098 10.7498 10.7498 11.3098 10.7498 11.9998V17.9998C10.7498 18.6898 11.3098 19.2498 11.9998 19.2498Z"/> <path d="M1.11628 7.11628C1.3507 6.88186 1.66864 6.75017 2.00017 6.75016H4.98217L1.11617 2.88416C0.881714 2.64971 0.75 2.33173 0.75 2.00016C0.75 1.6686 0.881714 1.35062 1.11617 1.11617C1.35062 0.881714 1.6686 0.75 2.00016 0.75C2.33173 0.75 2.64971 0.881714 2.88416 1.11617L6.75016 4.98216V2.00016C6.75016 1.66864 6.88186 1.3507 7.11628 1.11628C7.3507 0.88186 7.66864 0.750165 8.00016 0.750165C8.33169 0.750165 8.64963 0.88186 8.88405 1.11628C9.11847 1.3507 9.25016 1.66864 9.25016 2.00016V8.00016C9.25017 8.69016 8.69017 9.25016 8.00017 9.25016H2.00017C1.66864 9.25017 1.3507 9.11847 1.11628 8.88405C0.881861 8.64963 0.750165 8.33169 0.750165 8.00016C0.750165 7.66864 0.881861 7.3507 1.11628 7.11628Z"/> </svg>
