<svg width="20" height="20" viewBox="0 0 20 20" xmlns="http://www.w3.org/2000/svg"> <path d="M18 10.75C17.31 10.75 16.75 11.31 16.75 12V14.982L12.884 11.116C12.6496 10.8815 12.3316 10.7498 12 10.7498C11.6684 10.7498 11.3505 10.8815 11.116 11.116C10.8816 11.3505 10.7498 11.6684 10.7498 12C10.7498 12.3316 10.8816 12.6495 11.116 12.884L14.982 16.75H12C11.6685 16.75 11.3505 16.8817 11.1161 17.1161C10.8817 17.3505 10.75 17.6685 10.75 18C10.75 18.3315 10.8817 18.6495 11.1161 18.8839C11.3505 19.1183 11.6685 19.25 12 19.25H18C18.69 19.25 19.25 18.69 19.25 18V12C19.25 11.31 18.69 10.75 18 10.75Z"/> <path d="M8.88388 2.88388C8.64946 3.1183 8.33152 3.25 8 3.25H5.018L8.884 7.116C9.11845 7.35045 9.25017 7.66844 9.25016 8C9.25016 8.33156 9.11845 8.64955 8.884 8.884C8.64955 9.11845 8.33156 9.25017 8 9.25016C7.66844 9.25016 7.35045 9.11845 7.116 8.884L3.25 5.018L3.25 8C3.25 8.33152 3.1183 8.64946 2.88388 8.88388C2.64946 9.1183 2.33152 9.25 2 9.25C1.66848 9.25 1.35054 9.1183 1.11612 8.88388C0.881695 8.64946 0.75 8.33152 0.75 8L0.75 2C0.75 1.31 1.31 0.75 2 0.75L8 0.75C8.33152 0.75 8.64946 0.881696 8.88388 1.11612C9.1183 1.35054 9.25 1.66848 9.25 2C9.25 2.33152 9.1183 2.64946 8.88388 2.88388Z"/> </svg>
