<svg xmlns="http://www.w3.org/2000/svg" xmlns:xlink="http://www.w3.org/1999/xlink" viewBox="0 0 18 18"> <defs> <circle id="km44c0o4za" cx="9" cy="9" r="9"/> <circle id="ggqdmc3eyd" cx="9" cy="9" r="9"/> <circle id="nauu2hsd9f" cx="9" cy="9" r="9"/> <circle id="h59pfn6h1i" cx="9" cy="9" r="9"/> <circle id="la1stm9ikk" cx="9" cy="9" r="9"/> <circle id="pxxsdsmz0p" cx="9" cy="9" r="9"/> <circle id="ygz6ytbeyr" cx="9" cy="9" r="9"/> <circle id="e314swsvgv" cx="9" cy="9" r="9"/> <circle id="zg4zciicoy" cx="9" cy="9" r="9"/> <circle id="yrjyky4mbC" cx="9" cy="9" r="9"/> <circle id="yscynenlhF" cx="9" cy="9" r="9"/> <circle id="gufynd7q6I" cx="9" cy="9" r="9"/> <circle id="0gock9fakK" cx="9" cy="9" r="9"/> <circle id="hoebh3zkiM" cx="9" cy="9" r="9"/> <radialGradient id="3rjgb0s3nw" cx="-4.872%" cy="-.248%" r="401.327%" fx="-4.872%" fy="-.248%" gradientTransform="matrix(.26722 0 0 1 -.036 0)"> <stop offset="0%" stop-color="#3E2723" stop-opacity=".2"/> <stop offset="100%" stop-color="#3E2723" stop-opacity="0"/> </radialGradient> <radialGradient id="6l21dptnlD" cx="-.157%" cy=".104%" r="136.321%" fx="-.157%" fy=".104%" gradientTransform="matrix(1 0 0 .84752 0 0)"> <stop offset="0%" stop-color="#3E2723" stop-opacity=".2"/> <stop offset="100%" stop-color="#3E2723" stop-opacity="0"/> </radialGradient> <radialGradient id="13nszsqprG" cx="10.33%" cy="-12.215%" r="226.352%" fx="10.33%" fy="-12.215%" gradientTransform="matrix(1 0 0 .49642 0 -.062)"> <stop offset="0%" stop-color="#263238" stop-opacity=".2"/> <stop offset="100%" stop-color="#263238" stop-opacity="0"/> </radialGradient> <radialGradient id="m45i8ft6qO" cx="14.935%" cy="13.644%" r="100.426%" fx="14.935%" fy="13.644%"> <stop offset="0%" stop-color="#FFF" stop-opacity=".1"/> <stop offset="100%" stop-color="#FFF" stop-opacity="0"/> </radialGradient> <linearGradient id="ke8itvq2sc" x1="4.547%" x2="36.948%" y1="55.356%" y2="42.741%"> <stop offset="0%" stop-color="#A52714" stop-opacity=".6"/> <stop offset="66%" stop-color="#A52714" stop-opacity="0"/> </linearGradient> <linearGradient id="y7skkfp3xh" x1="70.024%" x2="41.909%" y1="87.776%" y2="66.355%"> <stop offset="0%" stop-color="#055524" stop-opacity=".4"/> <stop offset="33%" stop-color="#055524" stop-opacity="0"/> </linearGradient> <linearGradient id="4m8q2v0sho" x1="40.979%" x2="49.248%" y1="-4.841%" y2="45.414%"> <stop offset="0%" stop-color="#EA6100" stop-opacity=".3"/> <stop offset="66%" stop-color="#EA6100" stop-opacity="0"/> </linearGradient> <path id="snwdmd743m" d="M0 16.364L8.567 16.364 12.544 12.387 12.544 9.409 5.457 9.409 0 0.049z"/> <path id="gj9flcmwct" d="M0.511 0L4.055 6.136 0.079 13.091 9.511 13.091 9.511 0z"/> <path id="s4c0d7lx7A" d="M0.099 0L0.099 4.126 4.128 11.045 7.67 4.909 16.67 4.909 16.67 0z"/> </defs> <g fill="none" fill-rule="evenodd"> <g> <g> <g> <g transform="translate(-798 -240) translate(108 181) translate(8 42) translate(682 17)"> <g> <mask id="w218xkq33b" fill="#fff"> <use xlink:href="#km44c0o4za"/> </mask> <g fill-rule="nonzero" mask="url(#w218xkq33b)"> <g> <path fill="#DB4437" d="M0.099 0L0.099 11.045 4.128 11.045 7.67 4.909 16.67 4.909 16.67 0z" transform="translate(1.33)"/> <path fill="url(#ke8itvq2sc)" d="M0.099 0L0.099 11.045 4.128 11.045 7.67 4.909 16.67 4.909 16.67 0z" transform="translate(1.33)"/> </g> </g> </g> <g> <mask id="mnk2kshsie" fill="#fff"> <use xlink:href="#ggqdmc3eyd"/> </mask> <path fill="#3E2723" fill-opacity=".15" fill-rule="nonzero" d="M5.554 11.01L1.481 4.023 1.422 4.126 5.465 11.06z" mask="url(#mnk2kshsie)"/> </g> <g> <mask id="b715s60yjg" fill="#fff"> <use xlink:href="#nauu2hsd9f"/> </mask> <g fill-rule="nonzero" mask="url(#b715s60yjg)"> <g> <path fill="#0F9D58" d="M0 16.364L8.567 16.364 12.544 12.387 12.544 9.409 5.457 9.409 0 0.049z" transform="translate(0 1.636)"/> <path fill="url(#y7skkfp3xh)" d="M0 16.364L8.567 16.364 12.544 12.387 12.544 9.409 5.457 9.409 0 0.049z" transform="translate(0 1.636)"/> </g> </g> </g> <g> <mask id="q948jjn0ej" fill="#fff"> <use xlink:href="#h59pfn6h1i"/> </mask> <path fill="#263238" fill-opacity=".15" fill-rule="nonzero" d="M12.461 11.181L12.376 11.132 8.45 18 8.567 18 12.464 11.185z" mask="url(#q948jjn0ej)"/> </g> <g> <mask id="1zzzveigal" fill="#fff"> <use xlink:href="#la1stm9ikk"/> </mask> <g mask="url(#1zzzveigal)"> <g transform="translate(0 1.636)"> <mask id="k5cix4bopn" fill="#fff"> <use xlink:href="#snwdmd743m"/> </mask> <g fill-rule="nonzero" mask="url(#k5cix4bopn)"> <g> <path fill="#FFCD40" d="M0.511 0L4.055 6.136 0.079 13.091 9.511 13.091 9.511 0z" transform="translate(8.489 3.273)"/> <path fill="url(#4m8q2v0sho)" d="M0.511 0L4.055 6.136 0.079 13.091 9.511 13.091 9.511 0z" transform="translate(8.489 3.273)"/> </g> </g> </g> </g> </g> <g> <mask id="pcarrnyrjq" fill="#fff"> <use xlink:href="#pxxsdsmz0p"/> </mask> <g fill-rule="nonzero" mask="url(#pcarrnyrjq)"> <g> <path fill="#FFCD40" d="M0.511 0L4.055 6.136 0.079 13.091 9.511 13.091 9.511 0z" transform="translate(8.489 4.91)"/> <path fill="url(#4m8q2v0sho)" d="M0.511 0L4.055 6.136 0.079 13.091 9.511 13.091 9.511 0z" transform="translate(8.489 4.91)"/> </g> </g> </g> <g> <mask id="wnq0bhiqas" fill="#fff"> <use xlink:href="#ygz6ytbeyr"/> </mask> <g mask="url(#wnq0bhiqas)"> <g transform="translate(8.489 4.91)"> <mask id="kxd5s48mtu" fill="#fff"> <use xlink:href="#gj9flcmwct"/> </mask> <g fill-rule="nonzero" mask="url(#kxd5s48mtu)"> <g> <path fill="#DB4437" d="M0.099 0L0.099 11.045 4.128 11.045 7.67 4.909 16.67 4.909 16.67 0z" transform="translate(-7.16 -4.91)"/> <path fill="url(#ke8itvq2sc)" d="M0.099 0L0.099 11.045 4.128 11.045 7.67 4.909 16.67 4.909 16.67 0z" transform="translate(-7.16 -4.91)"/> </g> </g> </g> </g> </g> <g> <mask id="02upvawngx" fill="#fff"> <use xlink:href="#e314swsvgv"/> </mask> <path fill="url(#3rjgb0s3nw)" fill-rule="nonzero" d="M9 4.909L9 7.052 17.018 4.909z" mask="url(#02upvawngx)"/> </g> <g> <mask id="7q3egfye7z" fill="#fff"> <use xlink:href="#zg4zciicoy"/> </mask> <g mask="url(#7q3egfye7z)"> <g transform="translate(1.33)"> <mask id="jzzbwzyvuB" fill="#fff"> <use xlink:href="#s4c0d7lx7A"/> </mask> <g fill-rule="nonzero" mask="url(#jzzbwzyvuB)"> <g> <path fill="#0F9D58" d="M0 16.364L8.567 16.364 12.544 12.387 12.544 9.409 5.457 9.409 0 0.049z" transform="translate(-1.33 1.636)"/> <path fill="url(#y7skkfp3xh)" d="M0 16.364L8.567 16.364 12.544 12.387 12.544 9.409 5.457 9.409 0 0.049z" transform="translate(-1.33 1.636)"/> </g> </g> </g> </g> </g> <g> <mask id="x00xt7psdE" fill="#fff"> <use xlink:href="#yrjyky4mbC"/> </mask> <path fill="url(#6l21dptnlD)" fill-rule="nonzero" d="M1.429 4.137L7.284 9.991 5.457 11.045z" mask="url(#x00xt7psdE)"/> </g> <g> <mask id="j2oftx1xbH" fill="#fff"> <use xlink:href="#yscynenlhF"/> </mask> <path fill="url(#13nszsqprG)" fill-rule="nonzero" d="M8.574 17.989L10.717 9.991 12.544 11.045z" mask="url(#j2oftx1xbH)"/> </g> <g> <mask id="lovwq5zteJ" fill="#fff"> <use xlink:href="#gufynd7q6I"/> </mask> <g fill-rule="nonzero" mask="url(#lovwq5zteJ)"> <g transform="translate(4.91 4.91)"> <circle cx="4.091" cy="4.091" r="4.091" fill="#F1F1F1"/> <circle cx="4.091" cy="4.091" r="3.273" fill="#4285F4"/> </g> </g> </g> <g> <mask id="bmfoec66gL" fill="#fff"> <use xlink:href="#0gock9fakK"/> </mask> <g fill-rule="nonzero" mask="url(#bmfoec66gL)"> <g> <path fill="#3E2723" fill-opacity=".2" d="M9 3.17c-2.26 0-4.09 1.832-4.09 4.091v.103c0-2.26 1.83-4.091 4.09-4.091h9V3.17H9z" transform="translate(0 1.636)"/> <path fill="#FFF" fill-opacity=".1" d="M12.539 9.41c-.708 1.22-2.026 2.045-3.539 2.045-1.514 0-2.832-.825-3.54-2.046h-.004L0 .05v.102l5.457 9.36h.004c.708 1.222 2.026 2.046 3.54 2.046 1.513 0 2.83-.823 3.539-2.046h.005V9.41h-.006z" transform="translate(0 1.636)"/> <path fill="#3E2723" d="M9.102 3.273c-.017 0-.033.002-.05.003 2.235.027 4.039 1.846 4.039 4.088 0 2.241-1.804 4.06-4.04 4.087.018 0 .034.004.051.004 2.26 0 4.091-1.832 4.091-4.091 0-2.26-1.832-4.091-4.09-4.091z" opacity=".1" transform="translate(0 1.636)"/> <path fill="#FFF" fill-opacity=".2" d="M12.58 9.545c.347-.601.549-1.297.549-2.041 0-.432-.068-.847-.191-1.237.097.35.153.717.153 1.098 0 .744-.202 1.44-.55 2.041l.003.004-3.977 6.955h.119l3.896-6.816-.002-.004z" transform="translate(0 1.636)"/> </g> </g> </g> <g> <mask id="i50e28aeiN" fill="#fff"> <use xlink:href="#hoebh3zkiM"/> </mask> <g fill-rule="nonzero" mask="url(#i50e28aeiN)"> <path fill="#FFF" fill-opacity=".2" d="M9 .102c4.953 0 8.971 4.002 8.999 8.95L18 9c0-4.97-4.03-9-9-9S0 4.03 0 9l.001.051C.029 4.104 4.047.102 9 .102z"/> <path fill="#3E2723" fill-opacity=".15" d="M9 17.898c4.953 0 8.971-4.002 8.999-8.95L18 9c0 4.97-4.03 9-9 9s-9-4.03-9-9l.001-.051C.029 13.896 4.047 17.898 9 17.898z"/> </g> </g> <circle cx="9" cy="9" r="9" fill="url(#m45i8ft6qO)" fill-rule="nonzero"/> </g> </g> </g> </g> </g> </svg>
