<svg xmlns="http://www.w3.org/2000/svg" width="18" height="18" viewBox="0 0 18 18">
    <g fill="none" fill-rule="evenodd">
        <g fill="#3277BC" fill-rule="nonzero">
            <g>
                <g>
                    <g>
                        <g>
                            <path d="M5.26 7.252h6.372c0-2.262-.987-3.804-3.678-3.804-3.18 0-6.415 2.07-7.953 4.652C.477 3.619 3.691 0 8.527 0c4.146 0 8.075 3.17 8.075 8.44v2.003H5.294c0 2.727 2.379 3.807 4.87 3.807 3.032 0 4.91-1.362 4.91-1.362v3.82s-2.12 1.287-5.498 1.287c-4.39 0-7.49-3.147-7.49-7.06 0-3.07 1.858-5.522 4.431-6.534-1.252 1.376-1.257 2.85-1.257 2.85z" transform="translate(-798 -301) translate(108 181) translate(8 103) translate(682 17) translate(.698)"/>
                        </g>
                    </g>
                </g>
            </g>
        </g>
    </g>
</svg>
