<svg xmlns="http://www.w3.org/2000/svg" width="18" height="18" viewBox="0 0 18 18">
    <defs>
        <radialGradient id="n2bg3avxha" cx="89.418%" cy="13.12%" r="121.938%" fx="89.418%" fy="13.12%" gradientTransform="matrix(.92665 0 0 1 .066 0)">
            <stop offset="0%" stop-color="#FFF44F"/>
            <stop offset="29.49%" stop-color="#FF980E"/>
            <stop offset="43.15%" stop-color="#FF5D36"/>
            <stop offset="53.02%" stop-color="#FF3750"/>
            <stop offset="74.93%" stop-color="#F5156C"/>
            <stop offset="76.48%" stop-color="#F1136E"/>
            <stop offset="88.01%" stop-color="#DA057A"/>
            <stop offset="95.28%" stop-color="#D2007F"/>
        </radialGradient>
        <radialGradient id="f1i071fbcb" cx="8.274%" cy="23.647%" r="70.427%" fx="8.274%" fy="23.647%" gradientTransform="matrix(.92665 0 0 1 .006 0)">
            <stop offset="0%" stop-color="#B5007F"/>
            <stop offset="100%" stop-color="#F5156C" stop-opacity="0"/>
        </radialGradient>
        <radialGradient id="fcfu8two7c" cx="99.12%" cy="12.468%" r="133.586%" fx="99.12%" fy="12.468%" gradientTransform="matrix(.92665 0 0 1 .073 0)">
            <stop offset="0%" stop-color="#FD0" stop-opacity=".6"/>
            <stop offset="8.367%" stop-color="#FFD801" stop-opacity=".524"/>
            <stop offset="18.22%" stop-color="#FECA05" stop-opacity=".435"/>
            <stop offset="28.84%" stop-color="#FEB20C" stop-opacity=".339"/>
            <stop offset="39.98%" stop-color="#FD9115" stop-opacity=".239"/>
            <stop offset="51.54%" stop-color="#FB6621" stop-opacity=".134"/>
            <stop offset="63.29%" stop-color="#F9332F" stop-opacity=".028"/>
            <stop offset="66.4%" stop-color="#F92433" stop-opacity="0"/>
        </radialGradient>
        <radialGradient id="4lhsjdqgad" cx="52.852%" cy="55.64%" r="179.478%" fx="52.852%" fy="55.64%" gradientTransform="matrix(.92665 0 0 1 .039 0)">
            <stop offset="15.28%" stop-color="#960E18"/>
            <stop offset="20.61%" stop-color="#CC2335" stop-opacity=".554"/>
            <stop offset="24.95%" stop-color="#F13148" stop-opacity=".191"/>
            <stop offset="27.24%" stop-color="#FF3750" stop-opacity="0"/>
        </radialGradient>
        <radialGradient id="t45705mmle" cx="39.841%" cy="53.473%" r="180.728%" fx="39.841%" fy="53.473%" gradientTransform="matrix(.92665 0 0 1 .03 0)">
            <stop offset="11.29%" stop-color="#960E18"/>
            <stop offset="18.93%" stop-color="#CC2335" stop-opacity=".554"/>
            <stop offset="25.15%" stop-color="#F13148" stop-opacity=".191"/>
            <stop offset="28.43%" stop-color="#FF3750" stop-opacity="0"/>
        </radialGradient>
        <radialGradient id="0hgswzz0ef" cx="89.754%" cy="11.507%" r="125.675%" fx="89.754%" fy="11.507%" gradientTransform="matrix(.93537 0 0 1 .058 0)">
            <stop offset="0%" stop-color="#FF980E"/>
            <stop offset="29.5%" stop-color="#FF7139"/>
            <stop offset="48.46%" stop-color="#FF5B51"/>
            <stop offset="62.6%" stop-color="#FF4F5E"/>
            <stop offset="73.65%" stop-color="#FF4055"/>
            <stop offset="84.28%" stop-color="#FF3750"/>
        </radialGradient>
        <radialGradient id="e09kfqcwqg" cx="89.754%" cy="16.126%" r="119.22%" fx="89.754%" fy="16.126%" gradientTransform="matrix(.93537 0 0 1 .058 0)">
            <stop offset="8.407%" stop-color="#FFDE08"/>
            <stop offset="20.81%" stop-color="#FFD609" stop-opacity=".832"/>
            <stop offset="40.33%" stop-color="#FFBF0B" stop-opacity=".568"/>
            <stop offset="64.37%" stop-color="#FF9B0F" stop-opacity=".242"/>
            <stop offset="82.24%" stop-color="#FF7B12" stop-opacity="0"/>
        </radialGradient>
        <radialGradient id="q6eiwpw9vh" cx="62.259%" cy="53.175%" r="60.009%" fx="62.259%" fy="53.175%" gradientTransform="matrix(.23129 .96895 -.90633 .24727 .96 -.203)">
            <stop offset="36.34%" stop-color="#FF3750"/>
            <stop offset="41.11%" stop-color="#FF444B" stop-opacity=".789"/>
            <stop offset="59.02%" stop-color="#FF7139" stop-opacity="0"/>
        </radialGradient>
        <radialGradient id="68jztx6dfi" cx="52.199%" cy="58.122%" r="60.694%" fx="52.199%" fy="58.122%" gradientTransform="matrix(.23129 .96895 -.90633 .24727 .928 -.068)">
            <stop offset="21.59%" stop-color="#FF3750" stop-opacity=".8"/>
            <stop offset="27.02%" stop-color="#FF444B" stop-opacity=".632"/>
            <stop offset="47.39%" stop-color="#FF7139" stop-opacity="0"/>
        </radialGradient>
        <radialGradient id="njf3j9t5sj" cx="126.178%" cy="-3.744%" r="297.813%" fx="126.178%" fy="-3.744%" gradientTransform="matrix(1 0 0 .90707 0 -.003)">
            <stop offset="5.357%" stop-color="#FFF44F"/>
            <stop offset="45.73%" stop-color="#FF980E"/>
            <stop offset="52.11%" stop-color="#FF8424"/>
            <stop offset="58.71%" stop-color="#FF7634"/>
            <stop offset="63.93%" stop-color="#FF7139"/>
        </radialGradient>
        <linearGradient id="qzj82gr65k" x1="73.753%" x2="22.707%" y1="8.618%" y2="87.296%">
            <stop offset="0%" stop-color="#FFF44F" stop-opacity=".8"/>
            <stop offset="75%" stop-color="#FFF44F" stop-opacity="0"/>
        </linearGradient>
        <linearGradient id="dwdi8x56hl" x1="49.991%" x2="49.991%" y1="100.39%" y2="1.018%">
            <stop offset="0%" stop-color="#3A8EE6"/>
            <stop offset="10.16%" stop-color="#4D82EB"/>
            <stop offset="38.85%" stop-color="#7D65FA"/>
            <stop offset="53.09%" stop-color="#9059FF"/>
            <stop offset="69.15%" stop-color="#9D50F8"/>
            <stop offset="98.88%" stop-color="#C03AE7"/>
            <stop offset="100%" stop-color="#C139E6"/>
        </linearGradient>
        <linearGradient id="0wimpb90nm" x1="34.003%" x2="83.602%" y1="5.977%" y2="84.573%">
            <stop offset="80.54%" stop-color="#9059FF" stop-opacity="0"/>
            <stop offset="100%" stop-color="#6E008B" stop-opacity=".5"/>
        </linearGradient>
    </defs>
    <g fill="none" fill-rule="evenodd">
        <g fill-rule="nonzero">
            <g>
                <g>
                    <g>
                        <g>
                            <path fill="url(#n2bg3avxha)" d="M15.628 2.171c-.668-.877-1.487-1.6-2.406-2.15-.042-.025-.097-.017-.135.017-.05.05-.038.13.017.168 1.705 1.104 3.02 2.885 3.326 5.262.63 4.83-2.742 8.862-7.488 8.875-5.217.017-8.392-4.595-7.56-8.736.042-.206.02-.407.088-.605.038-.726.315-1.869.911-3.036-.6.31-1.365 1.293-1.743 2.2-.546 1.31-.735 2.877-.562 4.368l.037.336c.702 4.108 4.28 7.233 8.585 7.224 4.797-.008 8.703-3.943 8.678-8.744-.009-1.94-.66-3.734-1.748-5.179z" transform="translate(-798 -362) translate(108 181) translate(8 164) translate(682 17) translate(.306 1.566)"/>
                            <path fill="url(#f1i071fbcb)" d="M15.628 2.171c-.668-.877-1.487-1.6-2.406-2.15-.042-.025-.097-.017-.135.017-.05.05-.038.13.017.168 1.705 1.104 3.02 2.885 3.326 5.262.63 4.83-2.742 8.862-7.488 8.875-5.217.017-8.392-4.595-7.56-8.736.042-.206.02-.407.088-.605.038-.726.315-1.869.911-3.036-.6.31-1.365 1.293-1.743 2.2-.546 1.31-.735 2.877-.562 4.368l.037.336c.702 4.108 4.28 7.233 8.585 7.224 4.797-.008 8.703-3.943 8.678-8.744-.009-1.94-.66-3.734-1.748-5.179z" opacity=".67" transform="translate(-798 -362) translate(108 181) translate(8 164) translate(682 17) translate(.306 1.566)"/>
                            <path fill="url(#fcfu8two7c)" d="M15.628 2.171c-.668-.877-1.487-1.6-2.406-2.15-.042-.025-.097-.017-.135.017-.05.05-.038.13.017.168 1.705 1.104 3.02 2.885 3.326 5.262.63 4.83-2.742 8.862-7.488 8.875-5.217.017-8.392-4.595-7.56-8.736.042-.206.02-.407.088-.605.038-.726.315-1.869.911-3.036-.6.31-1.365 1.293-1.743 2.2-.546 1.31-.735 2.877-.562 4.368l.037.336c.702 4.108 4.28 7.233 8.585 7.224 4.797-.008 8.703-3.943 8.678-8.744-.009-1.94-.66-3.734-1.748-5.179z" transform="translate(-798 -362) translate(108 181) translate(8 164) translate(682 17) translate(.306 1.566)"/>
                        </g>
                        <g>
                            <path fill="url(#4lhsjdqgad)" d="M15.628 2.171c-.668-.877-1.487-1.6-2.406-2.15-.042-.025-.097-.017-.135.017-.05.05-.038.13.017.168 1.705 1.104 3.02 2.885 3.326 5.262.63 4.83-2.742 8.862-7.488 8.875-5.217.017-8.392-4.595-7.56-8.736.042-.206.02-.407.088-.605.038-.726.315-1.869.911-3.036-.6.31-1.365 1.293-1.743 2.2-.546 1.31-.735 2.877-.562 4.368l.037.336c.702 4.108 4.28 7.233 8.585 7.224 4.797-.008 8.703-3.943 8.678-8.744-.009-1.94-.66-3.734-1.748-5.179z" transform="translate(-798 -362) translate(108 181) translate(8 164) translate(682 17) translate(.306 1.566)"/>
                            <path fill="url(#t45705mmle)" d="M15.628 2.171c-.668-.877-1.487-1.6-2.406-2.15-.042-.025-.097-.017-.135.017-.05.05-.038.13.017.168 1.705 1.104 3.02 2.885 3.326 5.262.63 4.83-2.742 8.862-7.488 8.875-5.217.017-8.392-4.595-7.56-8.736.042-.206.02-.407.088-.605.038-.726.315-1.869.911-3.036-.6.31-1.365 1.293-1.743 2.2-.546 1.31-.735 2.877-.562 4.368l.037.336c.702 4.108 4.28 7.233 8.585 7.224 4.797-.008 8.703-3.943 8.678-8.744-.009-1.94-.66-3.734-1.748-5.179z" transform="translate(-798 -362) translate(108 181) translate(8 164) translate(682 17) translate(.306 1.566)"/>
                        </g>
                        <g>
                            <path fill="url(#0hgswzz0ef)" d="M15.51 5.355c-.28-2.528-1.7-4.255-3.515-5.263-.302-.168-.684-.096-.903.173l-.004.004c2.066 1.272 3.368 3.528 3.436 5.88.08 2.86-2.268 5.14-4.973 5.27-1.966.097-3.818-.852-4.725-2.754-.202-.425-.349-.853-.424-1.374-.429-2.89 1.516-5.355 3.3-5.968-.961-.84-3.376-.781-5.17.538C1.24 2.81.4 4.255.123 5.977-.088 7.29.109 8.657.63 9.874c.53 1.243 1.39 2.34 2.478 3.146 1.176.878 2.596 1.386 4.057 1.495.214.017.433.025.647.025 5.741.009 8.236-4.342 7.699-9.185z" transform="translate(-798 -362) translate(108 181) translate(8 164) translate(682 17) translate(1.44 1.44)"/>
                            <path fill="url(#e09kfqcwqg)" d="M15.51 5.355c-.28-2.528-1.7-4.255-3.515-5.263-.302-.168-.684-.096-.903.173l-.004.004c2.066 1.272 3.368 3.528 3.436 5.88.08 2.86-2.268 5.14-4.973 5.27-1.966.097-3.818-.852-4.725-2.754-.202-.425-.349-.853-.424-1.374-.429-2.89 1.516-5.355 3.3-5.968-.961-.84-3.376-.781-5.17.538C1.24 2.81.4 4.255.123 5.977-.088 7.29.109 8.657.63 9.874c.53 1.243 1.39 2.34 2.478 3.146 1.176.878 2.596 1.386 4.057 1.495.214.017.433.025.647.025 5.741.009 8.236-4.342 7.699-9.185z" transform="translate(-798 -362) translate(108 181) translate(8 164) translate(682 17) translate(1.44 1.44)"/>
                        </g>
                        <g opacity=".53">
                            <path fill="url(#q6eiwpw9vh)" d="M15.51 5.355c-.28-2.528-1.7-4.255-3.515-5.263-.302-.168-.684-.096-.903.173l-.004.004c2.066 1.272 3.368 3.528 3.436 5.88.08 2.86-2.268 5.14-4.973 5.27-1.966.097-3.818-.852-4.725-2.754-.202-.425-.349-.853-.424-1.374-.429-2.89 1.516-5.355 3.3-5.968-.961-.84-3.376-.781-5.17.538C1.24 2.81.4 4.255.123 5.977-.088 7.29.109 8.657.63 9.874c.53 1.243 1.39 2.34 2.478 3.146 1.176.878 2.596 1.386 4.057 1.495.214.017.433.025.647.025 5.741.009 8.236-4.342 7.699-9.185z" transform="translate(-798 -362) translate(108 181) translate(8 164) translate(682 17) translate(1.44 1.44)"/>
                            <path fill="url(#68jztx6dfi)" d="M15.51 5.355c-.28-2.528-1.7-4.255-3.515-5.263-.302-.168-.684-.096-.903.173l-.004.004c2.066 1.272 3.368 3.528 3.436 5.88.08 2.86-2.268 5.14-4.973 5.27-1.966.097-3.818-.852-4.725-2.754-.202-.425-.349-.853-.424-1.374-.429-2.89 1.516-5.355 3.3-5.968-.961-.84-3.376-.781-5.17.538C1.24 2.81.4 4.255.123 5.977-.088 7.29.109 8.657.63 9.874c.53 1.243 1.39 2.34 2.478 3.146 1.176.878 2.596 1.386 4.057 1.495.214.017.433.025.647.025 5.741.009 8.236-4.342 7.699-9.185z" transform="translate(-798 -362) translate(108 181) translate(8 164) translate(682 17) translate(1.44 1.44)"/>
                        </g>
                        <path fill="url(#njf3j9t5sj)" d="M12.54 1.696c-.004.004-.004.009-.008.013-.248.306-.197.752.105 1.004 1.302 1.066 2.176 2.583 2.176 4.334 0 2.42-1.873 4.263-4.066 4.133-3.259-.198-4.078-3.528-2.385-4.969-.458-.096-1.315.093-1.916.987-.537.802-.508 2.037-.176 2.915.907 1.898 2.76 2.873 4.725 2.755 3.713-.227 5.3-3.288 5.401-5.468.11-2.365-.424-4.46-2.952-5.872-.307-.172-.685-.1-.903.168z" transform="translate(-798 -362) translate(108 181) translate(8 164) translate(682 17)"/>
                        <path fill="url(#qzj82gr65k)" d="M15.934 3.737c-.23-.306-.487-.592-.756-.86-.214-.227-.445-.437-.689-.635.139.122.273.252.404.387.47.508.844 1.108 1.058 1.764.454 1.369.424 3.087-.441 4.43-1.033 1.605-2.713 2.399-4.528 2.361-.08 0-.155 0-.235-.004-3.259-.198-4.078-3.528-2.385-4.969-.458-.096-1.315.093-1.916.987-.537.802-.508 2.037-.176 2.915-.202-.424-.349-.853-.424-1.373-.429-2.89 1.516-5.355 3.301-5.969-.962-.84-3.377-.78-5.17.538-1.046.769-1.794 1.86-2.188 3.163.058-.731.336-1.819.903-2.936-.601.31-1.365 1.293-1.743 2.2C.403 7.048.214 8.615.386 10.106l.038.336c.697 4.099 4.271 7.224 8.568 7.224 4.8 0 8.694-3.894 8.694-8.694-.005-1.966-.656-3.776-1.752-5.234z" transform="translate(-798 -362) translate(108 181) translate(8 164) translate(682 17)"/>
                        <path fill="url(#dwdi8x56hl)" d="M15.951 4.393c-.218-.656-.588-1.256-1.058-1.764C13.885 1.545 12.402.852 10.974.537 9.773.272 8.513.277 7.379.516c-1.235.26-2.319.794-3.003 1.457 2.369-1.386 5.56-1.13 7.745.425.365.26.705.558 1.012.886 1.453 1.566 2.045 4.183.823 6.065-.613.953-1.932 1.843-3.163 1.835 1.886.1 3.646-.697 4.713-2.356.87-1.348.899-3.066.445-4.435z" transform="translate(-798 -362) translate(108 181) translate(8 164) translate(682 17)"/>
                        <path fill="url(#0wimpb90nm)" d="M15.951 4.393c-.218-.656-.588-1.256-1.058-1.764C13.885 1.545 12.402.852 10.974.537 9.773.272 8.513.277 7.379.516c-1.235.26-2.319.794-3.003 1.457 2.369-1.386 5.56-1.13 7.745.425.365.26.705.558 1.012.886 1.453 1.566 2.045 4.183.823 6.065-.613.953-1.932 1.843-3.163 1.835 1.886.1 3.646-.697 4.713-2.356.87-1.348.899-3.066.445-4.435z" transform="translate(-798 -362) translate(108 181) translate(8 164) translate(682 17)"/>
                    </g>
                </g>
            </g>
        </g>
    </g>
</svg>
