<svg xmlns="http://www.w3.org/2000/svg" width="18" height="18" viewBox="0 0 18 18">
    <defs>
        <linearGradient id="h8ycrh1yga" x1="50.015%" x2="50.015%" y1="1.63%" y2="98.545%">
            <stop offset="30%" stop-color="#FF1B2D"/>
            <stop offset="43.81%" stop-color="#FA1A2C"/>
            <stop offset="59.39%" stop-color="#ED1528"/>
            <stop offset="75.81%" stop-color="#D60E21"/>
            <stop offset="92.72%" stop-color="#B70519"/>
            <stop offset="100%" stop-color="#A70014"/>
        </linearGradient>
        <linearGradient id="e3ou32bjsb" x1="50.031%" x2="50.031%" y1=".855%" y2="99.607%">
            <stop offset="0%" stop-color="#9C0000"/>
            <stop offset="70%" stop-color="#FF4B4B"/>
        </linearGradient>
    </defs>
    <g fill="none" fill-rule="evenodd">
        <g fill-rule="nonzero">
            <g>
                <g>
                    <g>
                        <path fill="url(#h8ycrh1yga)" d="M6.03 14.076c-.99-1.17-1.638-2.916-1.692-4.86v-.432c.036-1.944.684-3.69 1.692-4.86 1.296-1.674 3.204-2.736 5.346-2.736 1.314 0 2.556.396 3.6 1.098C13.41.882 11.322 0 9.036 0H9C4.032 0 0 4.032 0 9c0 4.824 3.798 8.766 8.568 8.982.144 0 .288.018.432.018 2.304 0 4.41-.864 5.994-2.286-1.062.702-2.286 1.098-3.6 1.098-2.142 0-4.068-1.062-5.364-2.736z" transform="translate(-798 -573) translate(108 181) translate(8 375) translate(682 17)"/>
                        <path fill="url(#e3ou32bjsb)" d="M6.03 3.924c.828-.972 1.89-1.566 3.06-1.566 2.628 0 4.752 2.97 4.752 6.642s-2.124 6.642-4.752 6.642c-1.17 0-2.232-.594-3.06-1.566 1.296 1.674 3.204 2.736 5.346 2.736 1.314 0 2.556-.396 3.6-1.098C16.848 14.058 18 11.664 18 9c0-2.664-1.152-5.058-3.006-6.714-1.062-.702-2.286-1.098-3.6-1.098-2.142 0-4.068 1.062-5.364 2.736z" transform="translate(-798 -573) translate(108 181) translate(8 375) translate(682 17)"/>
                    </g>
                </g>
            </g>
        </g>
    </g>
</svg>
