<svg xmlns="http://www.w3.org/2000/svg" width="18" height="18" viewBox="0 0 18 18">
    <defs>
        <linearGradient id="r855phbraa" x1="50%" x2="50%" y1="100%" y2="0%">
            <stop offset="25%" stop-color="#DBDBDA"/>
            <stop offset="100%" stop-color="#FFF"/>
        </linearGradient>
        <linearGradient id="0vstcsu3gc" x1="49.05%" x2="25.713%" y1="35.703%" y2="77.572%">
            <stop offset="0%" stop-opacity="0"/>
            <stop offset="100%"/>
        </linearGradient>
        <radialGradient id="lxj8u5o4fb" cx="57.025%" cy="39.017%" r="61.032%" fx="57.025%" fy="39.017%">
            <stop offset="0%" stop-color="#2ABCE1"/>
            <stop offset="11.363%" stop-color="#2ABBE1"/>
            <stop offset="100%" stop-color="#3375F8"/>
        </radialGradient>
    </defs>
    <g fill="none" fill-rule="evenodd">
        <g fill-rule="nonzero">
            <g>
                <g>
                    <g transform="translate(-798 -423) translate(108 181) translate(8 225) translate(682 17)">
                        <circle cx="9" cy="9" r="9" fill="url(#r855phbraa)"/>
                        <circle cx="9" cy="9" r="8.325" fill="url(#lxj8u5o4fb)"/>
                        <g transform="translate(.718 .663)">
                            <path fill="#F3F3F3" d="M8.296 2.037c-.057 0-.106-.042-.106-.098V.469c0-.056.05-.098.106-.098.056 0 .105.042.105.098v1.47c-.007.056-.05.098-.105.098zM8.999 1.25c-.056-.007-.099-.05-.099-.106l.05-.653c.007-.057.056-.099.112-.092.056.007.098.05.098.106l-.049.654c-.007.056-.056.098-.112.09zM9.526 2.164c-.056-.014-.091-.063-.084-.12L9.73.603c.014-.056.063-.091.12-.077.056.014.09.063.084.12l-.288 1.44c-.007.05-.064.085-.12.078zM10.37 1.531c-.027-.006-.05-.023-.065-.047s-.02-.052-.013-.08l.176-.632c.014-.056.07-.085.127-.07.056.014.091.07.077.126l-.176.633c-.014.056-.07.084-.126.07zM10.714 2.523c-.056-.022-.077-.085-.056-.134l.562-1.357c.022-.05.085-.077.134-.05.056.022.077.085.056.134l-.562 1.357c-.021.05-.085.078-.134.05zM11.663 2.073c-.049-.029-.07-.085-.049-.134l.296-.584c.028-.049.084-.07.14-.042.05.028.07.085.05.134l-.296.583c-.028.05-.084.07-.14.043zM11.804 3.113c-.05-.035-.063-.098-.028-.14l.816-1.217c.028-.05.091-.056.14-.028.05.035.063.098.028.14l-.815 1.217c-.028.05-.092.063-.14.028zM12.83 2.853c-.042-.035-.056-.099-.02-.14l.407-.514c.035-.042.099-.05.14-.014.043.035.057.098.022.14l-.408.514c-.035.042-.098.05-.14.014zM12.76 3.908c-.042-.043-.042-.106 0-.141l1.04-1.034c.043-.042.106-.035.141 0 .036.036.043.106 0 .141l-1.033 1.034c-.042.042-.106.042-.148 0zM13.815 3.851c-.035-.042-.035-.105.007-.14l.5-.422c.041-.035.105-.028.14.014.035.042.035.105-.007.14l-.5.422c-.042.036-.105.028-.14-.014zM13.534 4.864c-.035-.05-.021-.113.028-.14l1.223-.816c.05-.029.113-.015.14.028.036.049.022.112-.027.14l-1.224.816c-.042.028-.105.014-.14-.028zM14.581 5.011c-.028-.049-.014-.112.035-.14l.57-.324c.05-.028.112-.007.14.043.029.049.015.112-.035.14l-.57.324c-.048.028-.112.007-.14-.043zM14.11 5.947c-.02-.057 0-.113.056-.134l1.357-.562c.05-.022.113.006.134.056.021.056 0 .112-.056.133l-1.357.563c-.05.02-.113 0-.134-.056zM15.102 6.298c-.022-.056.007-.112.063-.134l.619-.203c.049-.021.112.014.126.063.021.056-.007.112-.063.133l-.619.204c-.05.021-.105-.007-.126-.063zM14.469 7.135c-.014-.056.02-.113.077-.12l1.441-.281c.057-.014.106.028.12.084.014.057-.021.113-.077.12l-1.442.281c-.056.007-.112-.028-.12-.084zM15.369 7.676c-.007-.056.028-.105.084-.112l.647-.078c.056-.007.105.035.112.092.007.056-.028.105-.084.112l-.647.077c-.049.008-.105-.035-.112-.09zM14.581 8.358c0-.056.042-.105.099-.105h1.47c.055 0 .098.049.098.105 0 .056-.043.106-.099.106h-1.47c-.056 0-.098-.05-.098-.106zM15.362 9.068c.007-.056.049-.098.105-.098l.654.049c.056.007.098.056.091.113-.007.056-.049.098-.105.098l-.654-.05c-.05-.006-.091-.056-.091-.112zM14.455 9.581c.014-.056.063-.091.12-.084l1.44.288c.057.014.092.064.078.12-.014.056-.063.091-.12.084l-1.441-.288c-.05-.007-.084-.063-.077-.12zM15.088 10.425c.006-.027.023-.05.047-.065.023-.014.052-.019.079-.012l.633.176c.056.014.084.07.07.126-.006.027-.023.05-.047.065s-.052.02-.08.013l-.632-.176c-.056-.014-.085-.07-.07-.127zM14.096 10.763c.021-.057.085-.078.134-.057l1.357.563c.049.02.077.084.056.133-.021.057-.084.078-.134.057l-1.357-.563c-.056-.02-.077-.084-.056-.133zM14.553 11.712c.028-.05.084-.07.134-.05l.583.296c.05.021.07.084.043.14-.029.05-.085.07-.134.05l-.584-.296c-.049-.028-.07-.091-.042-.14zM13.52 11.845c.035-.049.091-.063.14-.028l1.224.816c.049.028.056.091.028.14-.035.05-.092.064-.14.029l-1.224-.816c-.05-.035-.064-.098-.028-.14zM13.78 12.865c.035-.042.098-.056.14-.021l.514.4c.042.036.049.099.014.141-.035.042-.099.056-.141.021l-.513-.4c-.042-.036-.05-.099-.014-.141zM12.732 12.795c.042-.043.106-.043.14 0l1.041 1.033c.043.042.035.106 0 .14-.042.043-.105.043-.14 0l-1.04-1.033c-.036-.035-.036-.105 0-.14zM12.795 13.842c.043-.035.106-.035.141.007l.429.492c.035.043.028.106-.014.141-.042.035-.106.035-.14-.007l-.43-.492c-.035-.035-.028-.099.014-.14zM11.783 13.575c.05-.035.112-.021.14.028l.816 1.217c.028.049.014.112-.028.14-.05.035-.113.021-.14-.028l-.816-1.216c-.028-.05-.014-.113.028-.141zM11.635 14.616c.05-.029.113-.014.14.035l.324.57c.028.048.007.112-.042.14-.05.028-.112.014-.14-.035l-.324-.57c-.021-.049-.007-.112.042-.14zM10.7 14.152c.056-.021.113 0 .134.049l.57 1.357c.02.049-.008.112-.057.133-.05.021-.112 0-.133-.049l-.57-1.357c-.021-.05.007-.112.056-.133zM10.356 15.15c.056-.021.112.007.133.063l.204.619c.021.05-.014.112-.063.127-.056.02-.113-.008-.134-.064l-.204-.618c-.02-.05.007-.106.064-.127zM9.526 14.51c.056-.014.113.021.12.077l.295 1.442c.014.056-.028.105-.085.12-.056.013-.112-.022-.119-.078l-.295-1.441c-.007-.05.028-.106.084-.12zM8.992 15.424c.056-.007.105.028.12.085l.084.646c.007.057-.036.106-.092.113-.056.007-.105-.028-.12-.084l-.084-.647c-.007-.057.035-.106.092-.113zM8.268 14.637c.056 0 .105.042.105.098v1.47c0 .056-.05.098-.105.098-.057 0-.106-.042-.106-.098v-1.47c.007-.056.05-.098.106-.098zM7.564 15.424c.057.007.099.05.099.106l-.05.654c-.006.056-.056.098-.112.091-.056-.007-.098-.05-.098-.106l.049-.653c.007-.057.056-.099.112-.092zM7.037 14.51c.056.014.092.063.084.12l-.288 1.441c-.014.056-.063.091-.12.077-.056-.014-.09-.063-.084-.12l.289-1.44c.007-.05.063-.085.12-.078zM6.193 15.143c.057.014.092.07.078.126l-.176.633c-.014.057-.07.085-.127.07-.027-.006-.05-.023-.064-.047-.015-.023-.02-.052-.013-.079l.176-.633c.014-.056.07-.084.126-.07zM5.849 14.152c.056.02.077.084.056.133l-.562 1.357c-.021.05-.085.077-.134.05-.05-.029-.077-.085-.056-.134l.562-1.357c.021-.05.085-.078.134-.05zM4.9 14.602c.049.028.07.084.049.133l-.295.584c-.029.049-.085.07-.141.042-.05-.028-.07-.084-.05-.134l.296-.583c.028-.05.085-.07.14-.042zM4.76 13.561c.048.035.062.098.027.14l-.815 1.217c-.028.05-.092.056-.14.028-.05-.035-.064-.098-.03-.14l.817-1.217c.028-.05.09-.063.14-.028zM3.733 13.821c.042.035.056.099.02.14l-.407.514c-.035.042-.099.05-.14.014-.043-.035-.057-.098-.022-.14l.408-.514c.035-.042.098-.05.14-.014zM3.803 12.767c.042.042.042.105 0 .14l-1.04 1.034c-.043.042-.106.035-.141 0-.035-.036-.042-.106 0-.141l1.033-1.033c.042-.043.106-.043.148 0zM2.748 12.823c.035.042.035.105-.007.14l-.499.422c-.042.035-.105.028-.14-.014-.036-.042-.036-.105.006-.14l.5-.422c.042-.036.105-.028.14.014zM3.03 11.81c.035.05.02.113-.029.14l-1.223.817c-.05.028-.112.014-.14-.029-.036-.049-.022-.112.028-.14l1.223-.816c.042-.028.105-.014.14.028zM1.982 11.663c.028.049.014.112-.035.14l-.57.324c-.049.028-.112.007-.14-.042-.029-.05-.014-.113.035-.141l.57-.324c.048-.028.112-.007.14.043zM2.453 10.728c.021.056 0 .112-.056.133l-1.357.563c-.05.02-.113-.007-.134-.057-.02-.056 0-.112.056-.133l1.357-.563c.05-.02.113 0 .134.057zM1.462 10.376c.02.056-.007.112-.064.134l-.618.203c-.05.022-.113-.014-.127-.063-.021-.056.007-.112.063-.133l.62-.204c.048-.021.105.007.126.063zM2.094 9.54c.014.056-.02.112-.077.119L.576 9.94c-.057.014-.106-.028-.12-.084-.014-.057.021-.113.078-.12l1.44-.281c.057-.007.113.028.12.084zM1.194 8.998c.007.056-.028.105-.084.112l-.647.078c-.056.007-.105-.035-.112-.092-.007-.056.028-.105.084-.112l.647-.077c.05-.008.105.035.112.091zM1.982 8.316c0 .056-.042.105-.099.105H.414c-.056 0-.098-.049-.098-.105 0-.056.042-.106.098-.106h1.47c.056 0 .098.05.098.106z"/>
                            <path fill="#E2E2E2" d="M1.202 7.606c-.008.056-.05.098-.106.098l-.654-.049c-.056-.007-.098-.056-.091-.112.007-.057.049-.099.105-.099l.654.05c.05.006.092.056.092.112z"/>
                            <path fill="#F3F3F3" d="M2.108 7.093c-.014.056-.063.091-.12.084l-1.44-.295C.49 6.868.456 6.818.47 6.762c.014-.056.064-.091.12-.084l1.441.288c.05.014.084.07.077.127zM1.476 6.249c-.007.027-.024.05-.048.065-.023.014-.052.019-.079.012L.716 6.15c-.056-.014-.084-.07-.07-.126.007-.027.024-.05.047-.065.024-.015.053-.019.08-.012l.632.175c.057.014.085.07.07.127zM2.467 5.911c-.021.057-.084.078-.133.057L.976 5.405C.927 5.385.9 5.321.92 5.272c.021-.057.085-.078.134-.057l1.357.563c.056.02.077.084.056.133zM2.01 4.962c-.028.05-.084.07-.134.05l-.583-.296c-.05-.021-.07-.084-.042-.14.028-.05.084-.07.133-.05l.584.296c.05.028.07.091.042.14zM3.044 4.829c-.036.049-.092.063-.141.028l-1.216-.809c-.05-.028-.057-.091-.029-.14.029-.05.092-.064.141-.029l1.223.816c.043.028.057.091.022.134zM2.783 3.81c-.035.041-.098.055-.14.02l-.513-.4c-.043-.036-.05-.099-.015-.141.036-.042.099-.056.141-.021l.513.4c.043.036.05.099.014.141zM3.831 3.88c-.042.042-.105.042-.14 0L2.642 2.845c-.042-.042-.035-.106 0-.14.042-.043.105-.043.14 0l1.041 1.033c.042.035.042.105.007.14zM3.768 2.832c-.042.035-.106.035-.14-.007l-.43-.492c-.035-.043-.028-.106.014-.14.042-.036.106-.036.14.006l.43.492c.035.035.028.099-.014.14zM4.78 3.1c-.049.034-.112.02-.14-.03l-.823-1.215c-.028-.05-.014-.113.028-.141.05-.035.113-.021.14.028l.816 1.216c.035.05.021.113-.02.141zM4.928 2.058c-.05.029-.113.015-.14-.035l-.324-.57c-.028-.048-.007-.112.042-.14.05-.028.113-.014.14.035l.324.57c.021.049.007.112-.042.14zM5.863 2.523c-.056.02-.113 0-.134-.05l-.57-1.357c-.02-.049.008-.112.057-.133.056-.021.113 0 .134.049l.57 1.357c.02.049-.008.112-.057.133zM6.207 1.524c-.056.021-.112-.007-.133-.063L5.87.842c-.021-.05.014-.112.063-.126.05-.015.113.007.134.063l.204.619c.02.049-.007.105-.064.126zM7.037 2.164c-.056.014-.112-.021-.12-.077L6.623.645C6.608.59 6.65.54 6.707.525c.056-.013.112.022.12.078l.295 1.441c.007.05-.029.106-.085.12zM7.571 1.25c-.056.007-.105-.028-.12-.084L7.369.519c-.007-.057.035-.106.091-.113.056-.007.105.028.12.085l.084.646c.007.057-.035.106-.092.113z"/>
                            <circle cx="8.331" cy="8.33" r="8.325" fill="url(#0vstcsu3gc)" fill-opacity=".2"/>
                        </g>
                        <path fill="#000" fill-opacity=".05" d="M14.814 3.712L8.1 8.015 8.093 8.015 8.093 8.022 8.086 8.029 3.895 14.941 10.054 9.984 10.061 9.977 10.061 9.97 14.814 3.712z"/>
                        <path fill="#CD151E" d="M14.688 3.312L8.05 8.029 10.019 9.984 14.688 3.312"/>
                        <path fill="#FA5153" d="M8.057 8.015L9.049 8.992 14.688 3.312z"/>
                        <path fill="#ACACAC" d="M8.057 8.015L10.026 9.97 3.389 14.688 8.057 8.015z"/>
                        <path fill="#EEE" d="M3.389 14.688L9.049 8.992 8.057 8.015z"/>
                    </g>
                </g>
            </g>
        </g>
    </g>
</svg>
