<svg xmlns="http://www.w3.org/2000/svg" viewBox="0 0 16 16"> <g fill="none" fill-rule="evenodd"> <g> <g transform="translate(-799 -424) translate(799 424)"> <circle cx="8" cy="8" r="8" fill="#D3D7E0"/> <g> <path d="M0 0L12 0 12 12 0 12z" transform="rotate(-90 8 6)"/> <path fill="#FFF" d="M6 4c.55 0 1-.45 1-1s-.45-1-1-1-1 .45-1 1 .45 1 1 1zm0 1c-.55 0-1 .45-1 1s.45 1 1 1 1-.45 1-1-.45-1-1-1zm0 3c-.55 0-1 .45-1 1s.45 1 1 1 1-.45 1-1-.45-1-1-1z" transform="rotate(-90 8 6)"/> </g> </g> </g> </g> </svg>
