<svg width="20" height="21" viewBox="0 0 20 21" fill="none" xmlns="http://www.w3.org/2000/svg"> <g> <path d="M4.8198 9.47833L3.34528 6.5293C2.23596 4.31066 1.68131 3.20135 2.19096 2.69169C2.70061 2.18204 3.80993 2.7367 6.02856 3.84601L15.7176 8.69056C17.2787 9.4711 18.0593 9.86138 18.0593 10.4794C18.0593 11.0974 17.2787 11.4877 15.7177 12.2683L6.02857 17.1128C3.80993 18.2221 2.70061 18.7768 2.19096 18.2671C1.68131 17.7575 2.23596 16.6482 3.34528 14.4295L4.82088 11.4783H10.5305C11.0827 11.4783 11.5305 11.0306 11.5305 10.4783C11.5305 9.92605 11.0827 9.47833 10.5305 9.47833H4.8198Z" fill="var(--custom-action-color, #0566ff)"></path> </g></svg>