<svg width="28" height="28" viewBox="0 0 28 28" fill="none" xmlns="http://www.w3.org/2000/svg"> <g> <path d="M2.91663 23.9613V4.44205C2.91663 3.85269 3.12079 3.35384 3.52913 2.94551C3.93746 2.53717 4.43631 2.33301 5.02567 2.33301H22.9743C23.5636 2.33301 24.0625 2.53717 24.4708 2.94551C24.8791 3.35384 25.0833 3.85269 25.0833 4.44205V17.724C25.0833 18.3133 24.8791 18.8122 24.4708 19.2205C24.0625 19.6288 23.5636 19.833 22.9743 19.833H7.04488L2.91663 23.9613ZM6.29996 18.083H22.9743C23.0641 18.083 23.1463 18.0456 23.221 17.9707C23.2959 17.896 23.3333 17.8138 23.3333 17.724V4.44205C23.3333 4.35222 23.2959 4.26997 23.221 4.1953C23.1463 4.12044 23.0641 4.08301 22.9743 4.08301H5.02567C4.93583 4.08301 4.85358 4.12044 4.77892 4.1953C4.70406 4.26997 4.66663 4.35222 4.66663 4.44205V19.6985L6.29996 18.083Z" fill="#4C596B"></path> </g> </svg>