<svg xmlns="http://www.w3.org/2000/svg" viewBox="0 0 24 24"><path fill-rule="evenodd" d="M20.896 6.023 18.52 4.106A.42.42 0 0 0 18.252 4a.4.4 0 0 0-.273.11L9.336 15.469s-3.397-3.342-3.493-3.44c-.095-.097-.22-.26-.41-.26-.191 0-.278.137-.377.239-.074.08-1.286 1.38-1.883 2.027-.035.04-.056.061-.086.092A.44.44 0 0 0 3 14.38c0 .097.035.177.087.252l.12.115s6.03 5.922 6.13 6.024.22.23.397.23c.173 0 .316-.19.399-.274l10.78-14.163A.45.45 0 0 0 21 6.306a.46.46 0 0 0-.104-.283" clip-rule="evenodd"></path></svg>
