<svg xmlns="http://www.w3.org/2000/svg" viewBox="0 0 24 24"><path d="M9.5 8c.825 0 1.5-.675 1.5-1.5S10.325 5 9.5 5 8 5.675 8 6.5 8.675 8 9.5 8M14.5 8c.825 0 1.5-.675 1.5-1.5S15.325 5 14.5 5 13 5.675 13 6.5 13.675 8 14.5 8M14.5 13.5c.825 0 1.5-.675 1.5-1.5s-.675-1.5-1.5-1.5-1.5.675-1.5 1.5.675 1.5 1.5 1.5M16 17.5c0 .825-.675 1.5-1.5 1.5s-1.5-.675-1.5-1.5.675-1.5 1.5-1.5 1.5.675 1.5 1.5M11 12c0 .825-.675 1.5-1.5 1.5S8 12.825 8 12s.675-1.5 1.5-1.5 1.5.675 1.5 1.5M9.5 19c.825 0 1.5-.675 1.5-1.5S10.325 16 9.5 16 8 16.675 8 17.5 8.675 19 9.5 19"></path></svg>
