<svg xmlns="http://www.w3.org/2000/svg" viewBox="0 0 16 16"><path d="M3.66678 11.7589C2.62065 11.7589 1.73272 11.394 1.00301 10.6643C0.273303 9.93458 -0.0915527 9.04665 -0.0915527 8.00052C-0.0915527 6.95439 0.273303 6.06647 1.00301 5.33675C1.73272 4.60704 2.62065 4.24219 3.66678 4.24219C4.08852 4.24219 4.4936 4.3164 4.882 4.46484C5.27041 4.61326 5.6186 4.82479 5.92656 5.09944L7.00808 6.07697L5.87258 7.10052L4.907 6.23494C4.73719 6.08736 4.54582 5.97112 4.3329 5.8862C4.11998 5.8013 3.89794 5.75885 3.66678 5.75885C3.04625 5.75885 2.5175 5.97733 2.08055 6.41429C1.64359 6.85124 1.42511 7.37999 1.42511 8.00052C1.42511 8.62105 1.64359 9.1498 2.08055 9.58675C2.5175 10.0237 3.04625 10.2422 3.66678 10.2422C3.89794 10.2422 4.11998 10.1997 4.3329 10.1148C4.54582 10.0299 4.73719 9.91368 4.907 9.7661L10.0737 5.09944C10.3816 4.82479 10.7298 4.61326 11.1182 4.46484C11.5066 4.3164 11.9117 4.24219 12.3334 4.24219C13.3796 4.24219 14.2675 4.60704 14.9972 5.33675C15.7269 6.06647 16.0918 6.95439 16.0918 8.00052C16.0918 9.04665 15.7269 9.93458 14.9972 10.6643C14.2675 11.394 13.3796 11.7589 12.3334 11.7589C11.9117 11.7589 11.5066 11.6846 11.1182 11.5362C10.7298 11.3878 10.3816 11.1762 10.0737 10.9016L8.99215 9.92407L10.1276 8.90052L11.0932 9.7661C11.263 9.91368 11.4544 10.0299 11.6673 10.1148C11.8803 10.1997 12.1023 10.2422 12.3334 10.2422C12.954 10.2422 13.4827 10.0237 13.9197 9.58675C14.3566 9.1498 14.5751 8.62105 14.5751 8.00052C14.5751 7.37999 14.3566 6.85124 13.9197 6.41429C13.4827 5.97733 12.954 5.75885 12.3334 5.75885C12.1023 5.75885 11.8803 5.8013 11.6673 5.8862C11.4544 5.97112 11.263 6.08736 11.0932 6.23494L5.92656 10.9016C5.6186 11.1762 5.27041 11.3878 4.882 11.5362C4.4936 11.6846 4.08852 11.7589 3.66678 11.7589Z"></path></svg>
