<svg xmlns="http://www.w3.org/2000/svg" viewBox="0 0 24 24"><path d="M17.127 5.813a.25.25 0 0 1 0-.354l1.768-1.768a.25.25 0 0 1 .353 0l1.061 1.06a.25.25 0 0 1 0 .354l-1.768 1.768a.25.25 0 0 1-.353 0zM12.75 4a.25.25 0 0 0 .25-.25v-2.5a.25.25 0 0 0-.25-.25h-1.5a.25.25 0 0 0-.25.25v2.5c0 .138.112.25.25.25zM20 12.75c0 .138.112.25.25.25h2.5a.25.25 0 0 0 .25-.25v-1.5a.25.25 0 0 0-.25-.25h-2.5a.25.25 0 0 0-.25.25zm-16 0a.25.25 0 0 1-.25.25h-2.5a.25.25 0 0 1-.25-.25v-1.5a.25.25 0 0 1 .25-.25h2.5a.25.25 0 0 1 .25.25zm2.873-6.937a.25.25 0 0 0 0-.354L5.105 3.691a.25.25 0 0 0-.353 0l-1.06 1.061a.25.25 0 0 0 0 .354l1.767 1.767a.25.25 0 0 0 .354 0zM15 20v1a1 1 0 0 1-1 1h-4a1 1 0 0 1-1-1v-1zm-7-8a4 4 0 1 1 6.4 3.2l-.4.3V17h-4v-1.5l-.4-.3A4 4 0 0 1 8 12m4-6a6 6 0 0 0-4 10.472v1.278c0 .69.56 1.25 1.25 1.25h5.5c.691 0 1.25-.56 1.25-1.25V16.47A6 6 0 0 0 12 6"></path></svg>
