<svg xmlns="http://www.w3.org/2000/svg" viewBox="0 0 24 24"><path fill-rule="evenodd" d="M11.925 3a1.625 1.625 0 1 0 0 3.25 1.625 1.625 0 0 0 0-3.25M8.3 4.625A3.625 3.625 0 1 1 13 8.088V11h4.463c1.102 0 1.994.896 1.994 2v2.2H20a2 2 0 0 1 2 2v3a2 2 0 0 1-2 2h-3a2 2 0 0 1-2-2v-3a2 2 0 0 1 2-2h.463V13H6.488v2.13a3.627 3.627 0 0 1-.963 7.12 3.625 3.625 0 0 1-1.032-7.1V13c0-1.104.893-2 1.995-2H11V8.131a3.63 3.63 0 0 1-2.7-3.506M5.525 17a1.625 1.625 0 1 0 0 3.25 1.625 1.625 0 0 0 0-3.25M17 17.2h3v3h-3z"></path></svg>
