<svg width="512" height="320" viewBox="0 0 512 320" fill="none" xmlns="http://www.w3.org/2000/svg">
     <path d="M187.779 145.51C185.367 156.878 185.833 168.669 189.135 179.811C192.438 190.953 198.472 201.093 206.689 209.31C214.906 217.528 225.047 223.562 236.189 226.864C247.331 230.166 259.121 230.632 270.489 228.22C270.489 228.22 318.575 221.5 325 173.5C333.5 110 277.5 82.5 241.5 92C199 99.5 186.75 143.46 187.779 145.51Z" fill="#080f1a"/>
     <path fill-rule="evenodd" clip-rule="evenodd" d="M94.0791 51.8601C59.3102 75.6726 29.3827 105.875 5.88907 140.86C2.05256 146.524 0.00195312 153.209 0.00195312 160.05C0.00195313 166.891 2.05256 173.576 5.88907 179.24C65.8591 268 160.929 320 255.999 319.35C286.794 319.462 317.383 314.335 346.459 304.19C375.96 294.931 391.718 287.436 417.909 268.18C452.684 244.371 482.615 214.168 506.109 179.18C509.943 173.517 511.993 166.834 511.993 159.995C511.993 153.156 509.943 146.473 506.109 140.81C446.139 52.0001 351.069 6.52415e-05 255.999 0.650065C225.204 0.538525 194.615 5.66494 165.539 15.8101C138.158 27.5161 122.529 35.3281 94.0791 51.8601ZM204.449 254.591C220.264 263.213 237.987 267.733 255.999 267.74C271.326 267.763 286.48 264.499 300.439 258.17C332.33 242.808 349.27 224.5 355 209.31C367 177.5 364.345 153.5 362.01 140.685C358.083 119.13 347.68 99.2837 332.188 83.7912C316.695 68.2988 296.849 57.8958 275.295 53.9687C253.74 50.0416 231.5 52.7769 211.539 61.8101C184.242 76.5057 172.932 88.6779 157.829 115.56C150.409 131.973 147.221 149.983 148.555 167.946C149.89 185.908 155.705 203.25 165.469 218.386C175.233 233.522 188.635 245.97 204.449 254.591Z" fill="#080f1a"/>
</svg>
