<svg xmlns="http://www.w3.org/2000/svg" viewBox="0 0 24 24"><path fill-rule="evenodd" d="M4.5 8a4 4 0 1 1 8 0 4 4 0 0 1-8 0m4-2a2 2 0 1 0 0 4 2 2 0 0 0 0-4m-4.322 7.855C5.365 13.263 6.91 13 8.5 13s3.135.262 4.322.856C14.026 14.457 15 15.49 15 17v2c0 1-1 1-1 1H3s-1 0-1-1v-2c0-1.51.974-2.543 2.178-3.145m.894 1.79C4.276 16.042 4 16.508 4 17v1h9v-1c0-.49-.276-.957-1.072-1.356C11.115 15.238 9.91 15 8.5 15s-2.615.238-3.428.644m8.291-6.288a3.357 3.357 0 1 1 6.715 0 3.357 3.357 0 0 1-6.715 0M16.721 8a1.357 1.357 0 1 0 0 2.714 1.357 1.357 0 0 0 0-2.714m.979 10H20v-.571C20 17 19.48 16 17.7 16c0 0-.974 0-.974-1s.974-1 .974-1c.3 0 4.3 0 4.3 3.429v1.572a1 1 0 0 1-1 1h-3.3s-.98 0-.98-1 .98-1 .98-1"></path></svg>
