<svg xmlns="http://www.w3.org/2000/svg" viewBox="0 0 24 24"><path fill="#7D57A4" fill-rule="evenodd" d="M3.078 5h18.163a2.08 2.08 0 0 1 2.078 2.08v6.928a2.077 2.077 0 0 1-2.078 2.078h-6.514l.891 2.191-3.934-2.191H3.076A2.08 2.08 0 0 1 1 14.008V7.08A2.08 2.08 0 0 1 3.078 5" clip-rule="evenodd"></path><path fill="#fff" d="M2.125 6.883a.75.75 0 0 1 .57-.282q.696-.048.798.655.429 2.854.918 4.845l2-3.801q.27-.516.685-.545.6-.042.751.765c.188 1.064.477 2.108.864 3.117q.36-3.473 1.202-5.021a.7.7 0 0 1 .603-.404.8.8 0 0 1 .575.18.7.7 0 0 1 .278.527.77.77 0 0 1-.088.439q-.534.99-.878 3.295-.34 2.223-.251 3.479a1.1 1.1 0 0 1-.106.597.57.57 0 0 1-.486.33q-.36.025-.722-.339-1.272-1.305-2.02-3.881-.879 1.756-1.318 2.628-.804 1.545-1.377 1.585-.373.027-.634-.625-.703-1.789-1.508-6.923a.78.78 0 0 1 .144-.621M21.73 8.316a2.12 2.12 0 0 0-1.458-1.054 2.4 2.4 0 0 0-.496-.053q-1.31 0-2.141 1.364a4.85 4.85 0 0 0-.709 2.57q0 1.053.44 1.806a2.11 2.11 0 0 0 1.458 1.054q.244.053.495.054 1.324 0 2.14-1.364a4.9 4.9 0 0 0 .71-2.585q0-1.053-.44-1.792m-1.15 2.53q-.189.897-.695 1.35-.401.361-.736.295-.335-.068-.537-.59a2.4 2.4 0 0 1-.16-.83q-.002-.34.066-.67c.087-.39.251-.758.482-1.084q.455-.669.95-.561.335.068.536.588c.103.265.157.546.16.83q.002.338-.067.672M16.013 8.316a2.12 2.12 0 0 0-1.458-1.054 2.4 2.4 0 0 0-.495-.053q-1.312 0-2.141 1.364a4.84 4.84 0 0 0-.71 2.57q0 1.053.44 1.806a2.1 2.1 0 0 0 1.458 1.054q.245.053.495.054 1.325 0 2.141-1.364a4.9 4.9 0 0 0 .716-2.585q0-1.053-.439-1.792zm-1.15 2.53q-.187.899-.696 1.352-.403.36-.736.294-.334-.067-.535-.592a2.4 2.4 0 0 1-.161-.83q-.001-.338.067-.67c.087-.389.25-.757.481-1.083q.453-.666.95-.56.335.069.535.589c.103.264.158.545.161.83q.001.337-.067.668z"></path></svg>
