<svg xmlns="http://www.w3.org/2000/svg" viewBox="0 0 48 48"><path fill="#A5DBE8" d="M15.559 36.828q.575-.255 1.163-.475a21 21 0 0 1 3.046-.904 21 21 0 0 1 2.35-.363 74 74 0 0 1-1.464 4.157q.033.4.042.804a17 17 0 0 1 6.608 0q.009-.403.042-.804a73 73 0 0 1-1.464-4.157q1.186.116 2.35.364a21 21 0 0 1 3.046.903 20.8 20.8 0 0 1 8.396 5.813C44.77 37.767 48 31.262 48 24 48 10.745 37.255 0 24 0S0 10.745 0 24c0 7.262 3.23 13.766 8.326 18.166a20.8 20.8 0 0 1 7.233-5.338"></path><path fill="#525353" d="m32.442 36.828 1.49 5.123.422.02c.275 0 .468.072.468.347 0 .456.023.968.067 1.415.371.316.823.671 1.166 1.017a24 24 0 0 0 3.619-2.584 20.8 20.8 0 0 0-7.232-5.338m-2.913-.051 1.749-.424a21 21 0 0 0-3.046-.904 21 21 0 0 0-2.35-.363q.67 2.1 1.464 4.157-.033.4-.042.804c1.24.244 2.458.67 3.585 1.168z"></path><path fill="#000" d="M11.945 44.75q.418.243.846.472c.1-.481.26-1.148.309-1.642-.371.315-.812.824-1.155 1.17m18.915-3.58a17 17 0 0 0-3.556-1.123 17.1 17.1 0 0 0-6.608 0c-1.24.244-2.533.615-3.66 1.113l-.119.746h14.166z"></path><path fill="#525353" d="M13.056 43.722a13 13 0 0 0 .076-1.303c0-.274.188-.45.462-.45l.45-.015 1.515-5.126a20.8 20.8 0 0 0-7.233 5.338 24 24 0 0 0 3.62 2.584q.514-.52 1.07-.992"></path><path fill="#000" d="M35.072 44.633c.097.488.12.585.137.589q.427-.228.846-.473a17 17 0 0 0-1.082-1.002z"></path><path fill="#AA9678" d="m30.86 41.17.223.736h2.898l-1.54-5.078q-.573-.255-1.163-.475l-1.75.424z"></path><path fill="#C4B6A1" d="m14.07 42.932.045-.032h-.043z"></path><path fill="#AA9678" d="M33.928 42.9h-.044l.046.032z"></path><path fill="#AA9678" d="m33.878 42.826-9.899.011L24 48a23.9 23.9 0 0 0 10.292-2.316c-.203-.895-.224-1.858-.257-2.796a2 2 0 0 0-.157-.062"></path><path fill="#C4B6A1" d="M23.984 42.858s-9.953-.012-9.969-.002c-.033.939-.226 2.052-.307 2.828A23.9 23.9 0 0 0 24 48l.006-5.125z"></path><path fill="#786453" d="M24 42.403v.497z"></path><path fill="#AA9678" d="m31.424 39.03.005.016zs-.244-.193-.552-.548c.308.355.552.548.552.548"></path><path fill="#BBBCBD" d="M39.723 24.218v-.006z"></path><path fill="#676A6A" d="m39.696 23.844.004.019.002.01v.002q.016.139.018.284.002.026.003.053v.013q-.002.029-.003.056a3 3 0 0 1-.018.279v.001l-.002.014-.004.02a3 3 0 0 1-.054.285v.001l.003-.003.001-.005.628-.657-.633-.663v.001a2 2 0 0 1 .055.29"></path><path fill="#000" d="M39.696 24.596q.003-.019.006-.036a3 3 0 0 0 .018-.279q.002-.03.003-.063-.002-.03-.003-.059a3 3 0 0 0-.018-.284l-.006-.03a3 3 0 0 0-.055-.29q-.014-.048-.029-.093a1.9 1.9 0 0 0-.226-.491 2 2 0 0 0-.115-.15 1 1 0 0 0-.124-.116q-.026-.017-.051-.032a.7.7 0 0 0-.167-.08.6.6 0 0 0-.172-.03.6.6 0 0 0-.172.03.7.7 0 0 0-.166.08l-.05.032a1 1 0 0 0-.24.266 1.9 1.9 0 0 0-.226.491l-.007.023a3 3 0 0 0-.061.27q-.009.042-.016.085a3 3 0 0 0-.024.325l-.003.045h.004c0 .914.432 1.655.966 1.655a.6.6 0 0 0 .264-.065 1 1 0 0 0 .142-.09q.028-.022.053-.048a1.4 1.4 0 0 0 .199-.244 2 2 0 0 0 .12-.236l.025-.06a2.2 2.2 0 0 0 .13-.526zm-.904-.598c-.2 0-.362-.278-.362-.621s.162-.62.362-.62.362.277.362.62-.162.62-.362.62z"></path><path fill="#FFF" d="M38.792 22.756c-.2 0-.362.278-.362.62 0 .344.162.622.362.622s.362-.278.362-.621-.162-.62-.362-.62"></path><path fill="#909393" d="M37.903 23.462a1.9 1.9 0 0 1 .264-.545 1 1 0 0 1 .201-.212l.05-.032a.7.7 0 0 1 .167-.08.6.6 0 0 1 .172-.03.6.6 0 0 1 .172.03q.09.029.167.08.026.015.05.032a1 1 0 0 1 .125.116q.062.07.115.15c.092.137.17.303.226.491l-.855-3.914z"></path><path fill="#000" d="M27.431 24.181a2 2 0 0 0-.015-.233v-.003a2 2 0 0 0-.038-.223l-.002-.005a2 2 0 0 0-.058-.213l-.002-.004a2 2 0 0 0-.08-.204l-.001-.005a2.27 2.27 0 0 0-1.208-1.17l-.007-.002a2.2 2.2 0 0 0-.404-.122q-.006 0-.01-.002a2.3 2.3 0 0 0-.86 0l-.015.002q-.207.041-.397.118l-.01.004a2.2 2.2 0 0 0-.697.447l-.003.008-.008.002q-.244.231-.41.524l-.005.007a2 2 0 0 0-.092.184l-.01.02a2 2 0 0 0-.068.18q-.007.016-.013.034a3 3 0 0 0-.046.174q-.007.025-.013.05-.017.086-.028.175l-.008.054a2.3 2.3 0 0 0 .03.673l.002.009q.043.211.123.408l.003.005a2.27 2.27 0 0 0 .985 1.113l.003.001q.091.05.188.094l.015.007q.09.038.183.07l.03.01q.087.028.176.047.022.007.047.012.086.017.175.028l.054.008a2.26 2.26 0 0 0 2.11-.985c.252-.373.386-.813.386-1.264V24.2zm-2.26-.264a.85.85 0 1 1 0-1.7.85.85 0 0 1 0 1.7"></path><path fill="#FFF" d="M25.172 22.218a.85.85 0 1 0 0 1.698.85.85 0 0 0 0-1.698"></path><path fill="#BBBCBD" d="m23.616 22.576.008-.002.003-.008 1.557-4.763v-1.127a13.3 13.3 0 0 0-2.672-.276q-.457.001-.907.034l-.132.009a13.4 13.4 0 0 0-4.527 1.177 14.5 14.5 0 0 0-3.38 2.165l-.001.001a15 15 0 0 0-.793.731l-.145.141q-.362.366-.7.754-.074.085-.146.17-.34.401-.656.822l-.051.072q-.3.409-.573.834-.055.083-.108.166a18 18 0 0 0-.423.718h7.095z"></path><path fill="#E3DDDB" d="M29.605 22.04a21 21 0 0 0 .063-1.313q.005-.294.002-.587v-.17a30 30 0 0 0-.055-1.513l-.004-.003-.002-.003-.563-.322-.013-.008-.147-.083-.003-.001-.102-.057-.02-.012a14 14 0 0 0-1.071-.509c-.807-.34-1.894-.639-2.506-.783v1.127l1.544 4.77.002.005a2.2 2.2 0 0 1 .505.714l.002.004q.045.099.079.204l.002.004q.034.104.058.213l.002.006q.024.109.038.222v.003q.013.116.015.233l.006.013h1.89q.19-1.04.273-2.096z"></path><path fill="#FCB03F" d="m32.077 20.353-.003.007z"></path><path fill="#909393" d="M23.627 22.566a2.3 2.3 0 0 1 .696-.447l.01-.004q.195-.078.398-.118l.014-.003a2.3 2.3 0 0 1 .86.001l.01.002a2.24 2.24 0 0 1 1.115.58l-.002-.003-1.544-4.77z"></path><path fill="#676A6A" d="M23.078 25.068a2.2 2.2 0 0 1-.123-.408l-.001-.009a2.3 2.3 0 0 1-.031-.673l.008-.054q.011-.089.028-.176l.013-.05a2 2 0 0 1 .046-.173l.013-.035q.03-.09.068-.18l.01-.02a2 2 0 0 1 .092-.183l.005-.007q.166-.292.41-.524l-6.551 1.618h-.013l6.489 1.584a2.3 2.3 0 0 1-.46-.705z"></path><path fill="#E3DDDB" d="M37.82 23.84q.006-.043.015-.085.023-.14.06-.27l.008-.03.854-3.915v-2.232c-.698-.576-1.446-.892-2.225-.892-.984 0-1.901.544-2.587 1.215-.751.734-1.331 1.658-1.8 2.59l-.065.128q.216.187.428.381.48.44.94.897.216.213.427.43.225.23.448.46a51 51 0 0 1 1.468 1.614v.001l.073.078h1.927c0-.016.004-.03.004-.045q.003-.168.024-.325"></path><path fill="#525353" d="m8.808 26.657.017-.043q.389-1.008.894-1.963.077-.15.157-.297c.03-.054.064-.106.094-.16.137-.242.275-.483.423-.718q.053-.083.108-.166.273-.425.573-.834l.05-.072q.316-.421.657-.821l.146-.171q.338-.389.7-.754l.145-.141q.383-.38.793-.73l.002-.002c1.078-3.612 4.56-5.832 8.464-5.832a8.63 8.63 0 0 1 4.473 1.272c1.373.84 2.31 1.661 3.037 3.096l.01.022q.03.053.058.108l.002.003.004.003q.917.567 1.74 1.265.277.233.543.479.088.078.176.159l.003-.007.002-.004.06-.123c.55-3.472 2.298-5.365 4.104-5.365 1.362 0 2.352.812 3.1 2.998l.007.023.002.003q.33.36.616.759l.012.015.03.096-.028-.114c-2.247-6.653-8.54-11.443-15.951-11.443-9.297 0-16.833 7.536-16.833 16.833 0 1.832.293 3.597.837 5.238l.002-.01a18 18 0 0 1 .77-2.602"></path><path fill="#FFF" d="m40.233 24.217-.587.656-.001.005q-.035.129-.08.244l-.025.06a2 2 0 0 1-.076.157l-.044.079a1.4 1.4 0 0 1-.199.244q-.025.025-.053.048a1 1 0 0 1-.142.09.6.6 0 0 1-.264.065c-.534 0-.966-.74-.966-1.655h-1.938v.002q.547.63 1.076 1.277.508.62 1.004 1.252l.049.062q.47.6.93 1.205l.09.117q.489.645.973 1.295a16.8 16.8 0 0 0 .883-5.21l-.545-.02z"></path><path fill="#000" d="m21.473 16.443.132-.01q.453-.03.907-.033c.913 0 1.805.098 2.672.276.612.144 1.7.443 2.506.784q.508.215.997.468l.074.04.02.012.102.057.003.001.147.083.013.008c.207.117.437.25.524.3l.023.012.016.01q-.029-.055-.057-.108l-.011-.022a8.76 8.76 0 0 0-3.22-3.506 8.63 8.63 0 0 0-4.473-1.272c-3.904 0-7.203 2.63-8.281 6.242a14.5 14.5 0 0 1 3.378-2.165 13.4 13.4 0 0 1 4.528-1.177"></path><path fill="#BBBCBD" d="M39.98 18.66v-.001l-.012-.015a8 8 0 0 0-.616-.76l-.006-.006a7 7 0 0 0-.29-.297q-.056-.05-.113-.1-.092-.086-.186-.166v2.233l.855 3.915.03.09.591.664.006-.007h.62q.002-.085.004-.172a16.8 16.8 0 0 0-.853-5.283l-.03-.096"></path><path fill="#000" d="M33.945 17.63c.686-.67 1.603-1.214 2.587-1.214.779 0 1.527.316 2.225.892v.008c.063.05.124.109.186.165.037.034.076.064.113.1q.15.144.29.297l.006.007-.002-.003-.008-.023c-.747-2.186-1.954-3.606-3.315-3.606-1.806 0-3.338 2.501-3.888 5.973l.006-.005c.469-.932 1.049-1.856 1.8-2.59m-2.441 21.338s-.244-.193-.552-.548a5.6 5.6 0 0 1-.519-.695c-.116-.185-.21-.41-.312-.632-.12-.257-.12-.428-.188-.668a4.7 4.7 0 0 1-.176-1.423 5.2 5.2 0 0 1 .153-1.061 6.4 6.4 0 0 1 .738-1.736l.094-.21c.12-.2.146-.191.26-.384 1.606-2.71 2.472-4.759 2.049-7.914q-.07-.485-.159-.967a39 39 0 0 1-.117.697c-.016.072-.06.15-.076.2-.697 2.064-1.795 3.583-3.375 5.297q-.33.357-.668.706-.605.624-1.22 1.236-.255.255-.523.518c-.163.162-.365.506-.607.76-.15.418-.32.89-.463 1.385q-.095-.034-.192-.072c-3.069-1.187-5.123-2.773-5.123-2.773s1.58 2.059 4.244 3.991q.368.267.761.493c-.11 1.74.658 3.409 4.12 3.907a7 7 0 0 0 1.79.012c-.006-.018.034-.017.03-.027-.003-.01.033-.037.033-.037"></path><path fill="#9F2254" d="M29.651 34.492c3.075.496 7.625.415 12.349-1.797.114-.053.24.087.353.031 0 0-3.229 3.298-7.084 5.162-.113.055-.224.113-.338.164-.372.17-.751.319-1.132.456-.746.268-1.502.471-2.252.565l-.104.015-.014-.042-.005-.016s-.244-.193-.552-.548a5.5 5.5 0 0 1-.851-1.307 5 5 0 0 1-.268-.719 4.6 4.6 0 0 1-.128-1.952z"></path><path fill="#FCB03F" d="M27.447 30.992q.617-.612 1.22-1.236.338-.35.668-.706c1.58-1.714 2.74-3.319 3.437-5.383q.025-.077.049-.186l.007-.034q.025-.115.049-.26c.006-.066.215-.2.22-.263-.174-.898-.578-1.843-1.018-2.565l.003.009-.008-.008q-.088-.08-.176-.16a16 16 0 0 0-.543-.478 14.5 14.5 0 0 0-1.74-1.265q.046.758.056 1.514l-.001.17q.002.292-.002.586a24 24 0 0 1-.063 1.313l-.005.058a21 21 0 0 1-.273 2.096l-.222 1.05c-.464 1.88-1.405 3.585-2.18 5.346-.205.467-.4.939-.57 1.42l-.05.135q.305-.321.62-.635z"></path><path fill="#525353" d="M17.287 41.102c1.127-.498 2.17-.81 3.409-1.055q-.009-.403-.042-.804a74 74 0 0 0 1.464-4.157 21 21 0 0 0-2.35.364 21 21 0 0 0-3.046.903l1.75.424-1.408 4.419z"></path><path fill="#DF0067" d="M38.917 28.008a108 108 0 0 0-.93-1.205l-.05-.062a79 79 0 0 0-1.016-1.268 62 62 0 0 0-1.062-1.261l-.069-.08a51 51 0 0 0-1.467-1.614 42 42 0 0 0-.448-.46q-.212-.218-.426-.431a35 35 0 0 0-.94-.897 22 22 0 0 0-.43-.381l-.002.004c.304.874.651 1.76.825 2.67q.068.357.113.694c.424 3.155-.587 5.215-2.193 7.925l-.354.593a6.4 6.4 0 0 0-.738 1.737 5 5 0 0 0-.105.532c3.149.508 7.884.603 12.728-1.778 0 0-.95-1.396-2.38-3.315q-.48-.645-.966-1.286z"></path><path fill="#AA9678" d="m16.897 41.985 1.575-5.208-1.75-.424q-.588.22-1.163.475l-1.56 5.157 1.741.028z"></path><path fill="#FFF" d="M18.004 39.732c.153.06.31.112.466.167 1.787.627 3.667.947 5.56.946a16.8 16.8 0 0 0 6.287-1.218c.103-.041.204-.087.305-.13q.248-.105.491-.218.219-.1.434-.206l-.104.015a7 7 0 0 1-1.79-.012c-3.462-.498-4.23-2.168-4.12-3.907a9 9 0 0 1-.76-.493c-2.665-1.932-4.245-3.99-4.245-3.99s2.054 1.585 5.123 2.772q.098.038.192.072c.144-.495.314-.967.463-1.385l.048-.135c.171-.481.366-.953.571-1.42.775-1.76 1.716-3.466 2.18-5.346l.222-1.05h-1.894v.02a2.255 2.255 0 0 1-1.381 2.083 2.25 2.25 0 0 1-1.115.166l-.054-.008a2 2 0 0 1-.175-.028q-.023-.005-.047-.012a2 2 0 0 1-.175-.046l-.031-.012a2 2 0 0 1-.183-.069l-.015-.007a2 2 0 0 1-.188-.094l-.003-.001a2.3 2.3 0 0 1-.525-.408l-6.489-1.584H9.97q-.047.08-.094.16-.08.148-.157.297a18 18 0 0 0-.894 1.963l-.017.043a18 18 0 0 0-.77 2.603 16.87 16.87 0 0 0 6.119 8.382c.082.06.17.113.253.171a16.8 16.8 0 0 0 3.594 1.919"></path><path fill="#8B7460" d="M34.984 43.758a14 14 0 0 1-.07-1.355.497.497 0 0 0-.497-.497H13.583a.497.497 0 0 0-.496.497 14 14 0 0 1-.296 2.819q.453.24.917.462c.207-.904.328-1.825.362-2.752l.002-.032h19.856l.002.032c.034.927.155 1.848.362 2.752q.465-.222.917-.462a14 14 0 0 1-.225-1.464"></path></svg>
