<svg xmlns="http://www.w3.org/2000/svg" viewBox="0 0 10 19" fill="default"><path d="M5.623 8.5c-1.778-.567-2.956-.79-2.956-2.09 0-.921.8-1.8 2.334-1.8 1.766 0 2.333.979 2.333 2.156h2.111c0-1.988-1.3-3.433-3.333-3.822V.611H3.889v2.344C2.134 3.311.556 4.478.556 6.422c0 2.5 1.978 3.111 4.445 3.911 2.088.678 2.5 1.156 2.5 2.322 0 1-.745 1.734-2.5 1.734-1.334 0-2.5-.934-2.5-2.29H.278c0 2.09 1.534 3.556 3.611 3.956v2.334h2.223v-2.3c2.266-.323 3.555-1.656 3.555-3.445 0-2.078-1.044-3.189-4.044-4.144"></path></svg>
