<svg xmlns="http://www.w3.org/2000/svg" viewBox="0 0 24 24"><path fill="#5E8E3E" d="m15 23 7-1.5-2.545-16.75c0-.125-.128-.125-.255-.125S17.29 4.5 17.29 4.5l-1.4-1.375s-.126 0-.126-.125z"></path><path fill="#95BF47" fill-rule="nonzero" d="M15 3.555s-.118 0 0 0c-.118 0-.355.122-.71.243-.354-1.094-1.063-2.187-2.245-2.187h-.118c-.354-.486-.709-.608-1.182-.608C8.027.882 6.727 4.406 6.255 6.23a52 52 0 0 1-1.891.608c-.591.243-.71.243-.71.85C3.537 8.173 2 20.691 2 20.691L14.173 23zm-3.19.85v.122l-2.128.73c.473-1.58 1.182-2.431 1.89-2.796.119.487.237 1.094.237 1.945zm-1.066-2.793c.119 0 .237 0 .355.121-.827.486-1.89 1.459-2.245 3.646-.591.243-1.182.486-1.773.608.474-1.703 1.655-4.377 3.664-4.377zm.473 9.722s-.707-.364-1.535-.364c-1.3 0-1.3.85-1.3 1.093 0 1.094 2.954 1.58 2.954 4.254 0 2.066-1.3 3.524-3.072 3.524-2.128 0-3.191-1.337-3.191-1.337l.472-2.066s1.064.973 2.01.973c.59 0 .827-.487.827-.851 0-1.458-2.364-1.58-2.364-4.01 0-2.067 1.418-4.011 4.373-4.011 1.182 0 1.654.365 1.654.365zm1.064-8.993c.59.121 1.063.85 1.3 1.58l-1.064.364v-.243c0-.729-.118-1.215-.236-1.701"></path></svg>
