<svg xmlns="http://www.w3.org/2000/svg" xml:space="preserve" viewBox="0 0 86 86"><circle cx="40" cy="43" r="40" style="fill:#eff2f6"/><path d="m14.4 58.9 53.3 11c.6.1 1.2.2 1.8.1 3.2-3.5 5.8-7.5 7.6-12l6.8-33c.8-3.6-1.6-7.3-5.3-8L25.3 6c-3.6-.8-7.3 1.6-8 5.3L9.1 50.9c-.8 3.7 1.6 7.3 5.3 8" style="fill:#0070d8"/><path d="M11.3 70.9q1.05.45 2.1.6L62.7 76c5.6-3.9 10.1-9.1 13.2-15.3L78.7 30c.3-3.7-2.4-7-6.1-7.4l-54.2-4.9c-3.7-.3-7 2.4-7.4 6.1L7.3 64.1c-.1.8 0 1.5.2 2.2 1.1 1.6 2.4 3.1 3.8 4.6" style="fill:#0c98f0"/><path d="M40 83c14.4 0 26.9-7.6 34-18.9V35.8c0-3.7-3-6.8-6.8-6.8H12.8C9 29 6 32 6 35.8v28.3C13.1 75.4 25.6 83 40 83" style="fill:#0abcff"/><path d="M40 39c3.3 0 6 2.7 6 6s-2.7 6-6 6-6-2.7-6-6 2.7-6 6-6m14 27H27v-4c0-4.4 9-6.7 13.5-6.7C45 55.4 54 57.6 54 62z" style="fill:#fff"/></svg>