<svg width="20" height="20" viewBox="0 0 20 20" xmlns="http://www.w3.org/2000/svg"><path d="M10.25 19.5C5.1625 19.5 1 15.3375 1 10.25C1 5.1625 5.1625 1 10.25 1C15.3375 1 19.5 5.1625 19.5 10.25C19.5 15.3375 15.3375 19.5 10.25 19.5ZM10.25 2.85C6.18 2.85 2.85 6.18 2.85 10.25C2.85 14.32 6.18 17.65 10.25 17.65C14.32 17.65 17.65 14.32 17.65 10.25C17.65 6.18 14.32 2.85 10.25 2.85Z"/> <path d="M7.47505 13.95C7.19755 13.95 7.01255 13.8575 6.82755 13.6725C6.45755 13.3025 6.45755 12.7475 6.82755 12.3775L12.3775 6.82749C12.7475 6.45749 13.3025 6.45749 13.6725 6.82749C14.0425 7.19749 14.0425 7.75249 13.6725 8.12249L8.12255 13.6725C7.93755 13.8575 7.75255 13.95 7.47505 13.95Z"/> <path d="M13.025 13.95C12.7475 13.95 12.5625 13.8575 12.3775 13.6725L6.82755 8.12249C6.45755 7.75249 6.45755 7.19749 6.82755 6.82749C7.19755 6.45749 7.75255 6.45749 8.12255 6.82749L13.6725 12.3775C14.0425 12.7475 14.0425 13.3025 13.6725 13.6725C13.4875 13.8575 13.3025 13.95 13.025 13.95Z"/> </svg>
