<svg viewBox="0 0 14 15" xmlns="http://www.w3.org/2000/svg"><path d="M0.956952 3.62988C0.956952 3.74707 1.34953 10.4238 1.54875 13.5908C1.60441 14.4668 2.18449 14.9971 3.07219 14.9971H9.97453C10.9853 14.9971 11.5185 14.4785 11.58 13.4736C11.7441 10.7666 12.1425 4.16602 12.1718 3.62695L0.956952 3.62988ZM8.91105 10.2949C9.28898 10.6729 9.28898 11.2852 8.91105 11.6631C8.53312 12.041 7.92082 12.041 7.54289 11.6631L6.56437 10.6846L5.58586 11.6631C5.20793 12.041 4.59562 12.041 4.21769 11.6631C3.83976 11.2852 3.83976 10.6729 4.21769 10.2949L5.19621 9.31641L4.21769 8.33496C3.83976 7.95703 3.83976 7.34473 4.21769 6.9668C4.59562 6.58887 5.20793 6.58887 5.58586 6.9668L6.56437 7.94531L7.54289 6.9668C7.92082 6.58887 8.53312 6.58887 8.91105 6.9668C9.28898 7.34473 9.28898 7.95703 8.91105 8.33496L7.93254 9.31641L8.91105 10.2949ZM12.1601 0.963867C11.3661 0.958008 10.5751 0.952148 9.7841 0.966797C9.73723 0.421875 9.28019 0 8.73234 0H4.37883C3.83098 0 3.37394 0.421875 3.33 0.966797C2.51555 0.952148 1.69816 0.958008 0.88371 0.963867C0.455976 0.969727 0.145429 1.20703 0.0428899 1.58203C-0.135821 2.23535 0.259687 2.77441 0.936444 2.77734C2.81437 2.7832 4.68937 2.78027 6.56437 2.78027H12.1542C12.7607 2.78027 13.1093 2.44043 13.1122 1.875C13.1152 1.30957 12.7636 0.966797 12.1601 0.963867Z"/></svg>
