<svg width="24" height="27" viewBox="0 0 24 27" xmlns="http://www.w3.org/2000/svg"> <path d="M19.83 0C17.61 0 15.8 1.8 15.8 4.03V12.5C14.22 13.98 11.7 13.88 10.69 13.76C10.6 13.75 10.53 13.84 10.56 13.92C10.82 14.6 11.96 16.74 15.8 17.52V22.3C15.8 24.52 17.6 26.33 19.83 26.33C22.06 26.33 23.86 24.53 23.86 22.3V4.03C23.86 1.81 22.06 0 19.83 0ZM4 12.38C3.99 12.28 4.09 12.21 4.18 12.26C4.72 12.54 6.29 13.28 8.06 13.4V4.03C8.06 1.81 6.26 0 4.03 0C1.8 0 0 1.8 0 4.03V22.31C0 24.53 1.8 26.34 4.03 26.34C6.26 26.34 8.06 24.54 8.06 22.31V17.18C4.76 16.23 4.12 13.24 4 12.38Z"/> </svg>
