<svg viewBox="0 0 189 28" xmlns="http://www.w3.org/2000/svg"> <path d="M52.47 0C54.54 0 56.23 1.68 56.23 3.76V23.67C56.23 25.74 54.55 27.43 52.47 27.43C50.39 27.43 48.71 25.75 48.71 23.67V3.76C48.71 1.69 50.39 0 52.47 0ZM62.67 0C64.74 0 66.43 1.68 66.43 3.76V23.67C66.43 25.74 64.75 27.43 62.67 27.43C60.59 27.43 58.91 25.75 58.91 23.67V3.76C58.91 1.69 60.59 0 62.67 0ZM42.89 18.78H33.01C33.56 20.58 35.12 21.77 37.36 21.77C39.6 21.77 40.65 20.75 42.39 20.75C43.95 20.75 45.14 21.69 45.14 23.29C45.14 25.99 41.59 27.55 37.12 27.55C30.7 27.55 25.97 22.88 25.97 17.15C25.97 11.42 30.19 6.71 36.74 6.71C43.29 6.71 46.75 11.05 46.75 15.06C46.75 17.27 45.44 18.79 42.91 18.79L42.89 18.78ZM33.13 14.77H39.89C39.34 13.01 38.07 12.23 36.51 12.23C34.86 12.23 33.68 13.21 33.13 14.77ZM79.27 6.7C85.16 6.7 90 11.35 90 17.11C90 22.87 85.16 27.48 79.27 27.48C73.38 27.48 68.54 22.83 68.54 17.11C68.54 11.39 73.38 6.7 79.27 6.7ZM79.27 12.86C77 12.86 75.31 14.7 75.31 17.11C75.31 19.52 76.99 21.31 79.27 21.31C81.55 21.31 83.23 19.47 83.23 17.11C83.23 14.75 81.55 12.86 79.27 12.86ZM19.83 1.09C17.61 1.09 15.8 2.89 15.8 5.12V13.59C14.22 15.07 11.7 14.97 10.69 14.85C10.6 14.84 10.53 14.93 10.56 15.01C10.82 15.69 11.96 17.83 15.8 18.61V23.39C15.8 25.61 17.6 27.42 19.83 27.42C22.06 27.42 23.86 25.62 23.86 23.39V5.12C23.86 2.9 22.06 1.09 19.83 1.09ZM4 13.47C3.99 13.37 4.09 13.3 4.18 13.35C4.72 13.63 6.29 14.37 8.06 14.49V5.12C8.06 2.9 6.26 1.09 4.03 1.09C1.8 1.09 0 2.89 0 5.12V23.4C0 25.62 1.8 27.43 4.03 27.43C6.26 27.43 8.06 25.63 8.06 23.4V18.27C4.76 17.32 4.12 14.33 4 13.47Z" fill="white"/> <path d="M109 9.398C109.954 9.398 110.74 10.208 110.74 11.162V24.398C110.74 25.352 109.954 26.162 109 26.162C108.046 26.162 107.26 25.352 107.26 24.398V19.142H98.98V24.398C98.98 25.352 98.194 26.162 97.24 26.162C96.286 26.162 95.5 25.352 95.5 24.398V11.162C95.5 10.208 96.286 9.398 97.24 9.398C98.194 9.398 98.98 10.208 98.98 11.162V15.986H107.26V11.162C107.26 10.208 108.046 9.398 109 9.398ZM123.46 13.67C124.396 13.67 125.146 14.42 125.146 15.356V24.476C125.146 25.412 124.396 26.162 123.46 26.162C122.542 26.162 121.786 25.412 121.786 24.476V24.218C121.306 25.25 120.262 26.324 118.102 26.324C115.702 26.324 113.746 24.686 113.746 21.758V15.356C113.746 14.42 114.502 13.67 115.42 13.67C116.356 13.67 117.106 14.42 117.106 15.356V20.384C117.106 22.466 118.096 23.168 119.326 23.168C120.526 23.168 121.786 22.466 121.786 20.384V15.356C121.786 14.42 122.542 13.67 123.46 13.67ZM142.812 13.508C145.092 13.508 146.808 15.062 146.808 17.99V24.476C146.808 25.412 146.058 26.162 145.134 26.162C144.204 26.162 143.448 25.412 143.448 24.476V19.448C143.448 17.366 142.578 16.664 141.426 16.664C140.346 16.664 139.164 17.366 139.164 19.448V24.476C139.164 25.412 138.414 26.162 137.49 26.162C136.56 26.162 135.804 25.412 135.804 24.476V19.448C135.804 17.366 134.934 16.664 133.782 16.664C132.702 16.664 131.52 17.366 131.52 19.448V24.476C131.52 25.412 130.77 26.162 129.846 26.162C128.916 26.162 128.16 25.412 128.16 24.476V15.356C128.16 14.42 128.916 13.67 129.846 13.67C130.77 13.67 131.52 14.42 131.52 15.356V15.614C132 14.582 133.086 13.508 135.168 13.508C136.812 13.508 138.162 14.312 138.786 15.86C139.56 14.42 140.898 13.508 142.812 13.508ZM155.36 13.592C158.906 13.592 160.688 14.984 160.688 18.452V24.476C160.688 25.412 159.938 26.162 159.014 26.162C158.084 26.162 157.328 25.412 157.328 24.476V24.296C156.524 25.646 155.198 26.324 153.59 26.324C151.31 26.324 149.384 24.992 149.384 22.508C149.384 19.994 151.568 18.584 154.532 18.584C155.432 18.584 156.32 18.734 157.316 19.058V18.746C157.316 17.306 156.608 16.514 154.748 16.514C153.788 16.514 153.068 16.748 152.546 16.934C152.108 17.102 151.796 17.216 151.34 17.216C150.734 17.216 150.098 16.736 150.098 15.908C150.098 15.242 150.5 14.708 151.232 14.39C152.204 13.982 153.59 13.592 155.36 13.592ZM154.448 23.828C155.984 23.828 157.274 22.754 157.322 21.056V20.966C156.5 20.618 155.69 20.474 154.988 20.474C153.386 20.474 152.558 21.068 152.558 22.202C152.558 23.318 153.32 23.828 154.448 23.828ZM170.879 13.508C173.279 13.508 175.355 15.062 175.355 17.99V24.476C175.355 25.412 174.605 26.162 173.681 26.162C172.751 26.162 171.995 25.412 171.995 24.476V19.448C171.995 17.366 170.927 16.664 169.655 16.664C168.455 16.664 167.075 17.366 167.075 19.448V24.476C167.075 25.412 166.325 26.162 165.401 26.162C164.471 26.162 163.715 25.412 163.715 24.476V15.356C163.715 14.42 164.471 13.67 165.401 13.67C166.325 13.67 167.075 14.42 167.075 15.356V15.614C167.555 14.582 168.719 13.508 170.879 13.508ZM181.303 17.156C181.303 18.848 188.023 17.708 188.023 22.334C188.023 25.064 185.695 26.324 182.521 26.324C181.063 26.324 179.635 26.072 178.669 25.688C178.093 25.466 177.709 24.992 177.709 24.38C177.709 23.6 178.261 23 179.113 23C180.103 23 180.961 23.624 182.611 23.624C183.775 23.624 184.687 23.402 184.687 22.592C184.687 20.702 178.027 21.884 178.027 17.396C178.027 14.738 180.391 13.508 183.211 13.508C184.519 13.508 185.797 13.742 186.691 14.108C187.333 14.366 187.693 14.798 187.693 15.494C187.693 16.232 187.135 16.808 186.301 16.808C185.401 16.808 184.597 16.166 183.163 16.166C181.735 16.166 181.303 16.634 181.303 17.156Z" fill="white"/> </svg>
