<svg viewBox="0 0 1571 612" fill="none" xmlns="http://www.w3.org/2000/svg"><path fill-rule="evenodd" clip-rule="evenodd" d="M233.773 486.977C265.815 512.379 293.259 527.016 307.99 531.829C318.905 535.395 326.591 536.961 331.72 537.588C331.269 534.723 330.528 531.302 329.417 527.303C326.165 515.597 320.441 501.383 312.772 485.539C297.472 453.934 276.407 419.854 258.741 393.165C249.988 379.94 242.227 368.768 236.672 360.925C233.897 357.007 231.679 353.93 230.171 351.853C229.417 350.815 228.841 350.028 228.462 349.512C228.357 349.369 228.267 349.247 228.193 349.147L228.043 348.943L227.935 348.796L227.932 348.793L227.931 348.791C227.931 348.791 227.931 348.792 227.949 348.779L272.169 292.718L257.649 326.75C272.169 292.718 272.169 292.718 272.172 292.719L272.613 292.907C272.919 293.037 273.382 293.234 273.995 293.494C275.223 294.015 277.056 294.791 279.458 295.804C284.263 297.83 291.341 300.802 300.394 304.569C318.501 312.102 344.497 322.81 375.988 335.477C439.008 360.827 523.859 393.957 611.439 425.19C699.234 456.5 788.843 485.57 861.657 503.096C898.176 511.886 929.248 517.469 953.166 519.234C965.12 520.115 974.295 519.963 980.933 519.141C986.771 518.417 988.926 517.381 988.984 517.38C995.477 513.094 997.874 509.501 998.926 507.292C1000.04 504.949 1000.84 501.625 1000.48 496.298C999.638 483.965 993.36 468.211 983.279 447.773C981.822 444.819 980.21 441.615 978.549 438.312C975.215 431.684 971.682 424.66 968.801 418.47C964.474 409.172 959.563 397.59 957.353 385.863C955.169 374.268 954.312 355.134 967.918 338.58C980.86 322.834 999.586 318.527 1013.62 317.374C1044.73 314.818 1083.21 322.126 1120.14 332.136C1158.11 342.425 1198.59 356.767 1235.31 371.098C1259.64 380.591 1282.57 390.18 1302.37 398.762L1225.2 39.835L1281.01 0.702121L1570.22 181.87L1530.93 244.581L1315.96 109.911L1390.17 455.11L1337.83 496.158C1337.82 496.164 1337.82 496.165 1337.82 496.165L1337.82 496.164L1337.82 496.163L1337.23 495.877C1336.81 495.673 1336.16 495.363 1335.31 494.954C1333.6 494.136 1331.05 492.923 1327.76 491.375C1321.17 488.276 1311.6 483.838 1299.8 478.526C1276.17 467.889 1243.74 453.822 1208.41 440.035C1172.97 426.206 1135.21 412.888 1100.78 403.559C1075.75 396.773 1054.4 392.65 1037.82 391.322C1039.71 395.217 1041.69 399.165 1043.88 403.501C1045.66 407.03 1047.56 410.815 1049.65 415.039C1059.4 434.82 1072.36 462.613 1074.31 491.272C1075.34 506.441 1073.42 522.974 1065.73 539.115C1057.99 555.364 1045.54 568.826 1029.24 579.476C1016.9 587.532 1002.7 591.009 990.032 592.579C976.951 594.2 962.568 594.128 947.721 593.033C918.04 590.843 882.549 584.238 844.34 575.041C767.697 556.593 675.187 526.49 586.582 494.89C500.473 464.181 417.174 431.743 354.252 406.494C363.136 421.745 371.8 437.642 379.378 453.296C388.065 471.24 395.822 489.875 400.717 507.497C405.336 524.125 408.803 544.603 403.926 563.891C401.304 574.261 396.098 584.909 386.97 593.741C377.829 602.585 366.732 607.696 355.389 610.119C334.207 614.644 309.966 610.324 285.01 602.171C258.832 593.618 223.571 573.322 187.801 544.965C151.447 516.144 112.347 477.25 79.3253 429.51C12.889 333.462 -29.5616 200.132 27.2346 44.2225L39.8992 9.45745L109.429 34.7867L96.7648 69.5517C50.0614 197.755 83.951 306.116 140.185 387.413C168.498 428.346 202.316 462.039 233.773 486.977ZM1030.01 371.761C1030.01 371.762 1030.02 371.799 1030.02 371.868C1030.01 371.795 1030.01 371.76 1030.01 371.761ZM1017.22 391.439C1016.99 391.512 1016.86 391.538 1016.85 391.533C1016.84 391.528 1016.96 391.492 1017.22 391.439Z" fill="#0566FF"/></svg>
