<svg xmlns="http://www.w3.org/2000/svg" width="1125" height="800" viewBox="0 0 1125 800"><defs><style>.a{fill:#fff}.b{fill:#eff2f6}.c{fill:#e6e9ef}.d{fill:#dfe4ea}</style></defs><rect width="1125" height="800" class="a" rx="6"/><path d="M97 90.18h921.63v341.83H97z" class="b"/><path d="M412.86 561.82h289.9v155.77h-289.9z" class="c"/><path d="M600.81 673.53v-66.89a9.54 9.54 0 0 0-9.55-9.55h-66.89a9.55 9.55 0 0 0-9.56 9.55v66.89a9.56 9.56 0 0 0 9.56 9.56h66.89a9.55 9.55 0 0 0 9.55-9.56m-59.72-26.27L553 661.61l16.73-21.52 21.5 28.67h-66.86Z" class="a"/><path d="M728.73 561.82h289.9v155.77h-289.9z" class="c"/><path d="M916.81 673.53v-66.89a9.54 9.54 0 0 0-9.55-9.55h-66.89a9.55 9.55 0 0 0-9.56 9.55v66.89a9.56 9.56 0 0 0 9.56 9.56h66.89a9.55 9.55 0 0 0 9.55-9.56m-59.72-26.27L869 661.61l16.73-21.52 21.5 28.67h-66.86Z" class="a"/><path d="M97 561.82h289.9v155.77H97z" class="c"/><path d="M284.81 673.53v-66.89a9.54 9.54 0 0 0-9.55-9.55h-66.89a9.55 9.55 0 0 0-9.56 9.55v66.89a9.56 9.56 0 0 0 9.56 9.56h66.89a9.55 9.55 0 0 0 9.55-9.56m-59.72-26.27L237 661.61l16.73-21.52 21.5 28.67h-66.86Z" class="a"/><rect width="157.21" height="36.06" x="97" y="27.44" class="b" rx="18.03"/><rect width="405.29" height="15.87" x="355.17" y="509.17" class="b" rx="7.93"/><rect width="129.81" height="23.08" x="492.91" y="468.07" class="c" rx="11.54"/><rect width="405.29" height="31.73" x="355.17" y="187.54" class="d" rx="15.87"/><rect width="323.08" height="31.73" x="396.27" y="238.02" class="d" rx="15.87"/><rect width="201.92" height="36.06" x="456.85" y="305.81" class="a" rx="18.03"/><circle cx="1001.32" cy="45.47" r="18.03" class="b"/><circle cx="951.56" cy="45.47" r="18.03" class="b"/></svg>