<svg width="1200px" height="800px" viewBox="0 0 1200 800" version="1.1" xmlns="http://www.w3.org/2000/svg"> <g stroke="none" stroke-width="1" fill="none" fill-rule="evenodd"> <g transform="translate(-30976.000000, -5237.000000)"> <g transform="translate(30976.000000, 5237.000000)"> <polygon id="Path" fill="#D3D7E0" fill-rule="nonzero" points="0 0 1200 0 1200 800 0 800"></polygon> <g id="Group" transform="translate(200.000000, 0.000000)"> <polygon id="Path" transform="translate(400.000000, 400.000000) rotate(-90.000000) translate(-400.000000, -400.000000) " points="9.76996262e-13 2.41255419e-14 800 2.41255419e-14 800 800 9.76996262e-13 800"></polygon> <path d="M400,266.666667 C436.666667,266.666667 466.666667,236.666667 466.666667,200 C466.666667,163.333333 436.666667,133.333333 400,133.333333 C363.333333,133.333333 333.333333,163.333333 333.333333,200 C333.333333,236.666667 363.333333,266.666667 400,266.666667 Z M400,333.333333 C363.333333,333.333333 333.333333,363.333333 333.333333,400 C333.333333,436.666667 363.333333,466.666667 400,466.666667 C436.666667,466.666667 466.666667,436.666667 466.666667,400 C466.666667,363.333333 436.666667,333.333333 400,333.333333 Z M400,533.333333 C363.333333,533.333333 333.333333,563.333333 333.333333,600 C333.333333,636.666667 363.333333,666.666667 400,666.666667 C436.666667,666.666667 466.666667,636.666667 466.666667,600 C466.666667,563.333333 436.666667,533.333333 400,533.333333 Z" id="Shape" fill="#FFFFFF" fill-rule="nonzero" transform="translate(400.000000, 400.000000) rotate(-90.000000) translate(-400.000000, -400.000000) "></path> </g> </g> </g> </g> </svg>
