<?xml version="1.0" encoding="UTF-8"?>
<svg width="1200px" height="800px" viewBox="0 0 1200 800" version="1.1" xmlns="http://www.w3.org/2000/svg" xmlns:xlink="http://www.w3.org/1999/xlink">
    <title>us</title>
    <g id="Page-1" stroke="none" stroke-width="1" fill="none" fill-rule="evenodd">
        <g id="Artboard" transform="translate(-29310.000000, -5237.000000)" fill-rule="nonzero">
            <g id="us" transform="translate(29310.000000, 5237.000000)">
                <rect id="Rectangle" fill="#B22234" x="0" y="0" width="1200" height="800"></rect>
                <path d="M0,123.076923 L0,61.5384615 L1200,61.5384615 L1200,123.076923 L0,123.076923 Z M1200,184.615385 L1200,246.153846 L0,246.153846 L0,184.615385 L1200,184.615385 Z M0,369.230769 L0,307.692308 L1200,307.692308 L1200,369.230769 L0,369.230769 Z M1200,430.769231 L1200,492.307692 L0,492.307692 L0,430.769231 L1200,430.769231 Z M0,615.384615 L0,553.846154 L1200,553.846154 L1200,615.384615 L0,615.384615 Z M1200,676.923077 L1200,738.461538 L0,738.461538 L0,676.923077 L1200,676.923077 Z" id="Shape" fill="#FFFFFF"></path>
                <rect id="Rectangle" fill="#3C3B6E" x="0" y="0" width="480" height="430.769231"></rect>
                <g id="Group" transform="translate(21.376518, 18.461538)" fill="#FFFFFF">
                    <g id="s18">
                        <g id="s9">
                            <g id="s5">
                                <g id="s4">
                                    <polygon id="s" points="18.6234818 0 30.0460291 44.529649 0.141411822 17.0088125 37.1055517 17.0088125 7.20093441 44.529649"></polygon>
                                    <g id="s-link" transform="translate(0.000000, 86.153846)">
                                        <polygon id="s" points="18.6234818 0 30.0460291 44.529649 0.141411822 17.0088125 37.1055517 17.0088125 7.20093441 44.529649"></polygon>
                                    </g>
                                    <g id="s-link" transform="translate(0.000000, 172.307692)">
                                        <polygon id="s" points="18.6234818 0 30.0460291 44.529649 0.141411822 17.0088125 37.1055517 17.0088125 7.20093441 44.529649"></polygon>
                                    </g>
                                    <g id="s-link" transform="translate(0.000000, 258.461538)">
                                        <polygon id="s" points="18.6234818 0 30.0460291 44.529649 0.141411822 17.0088125 37.1055517 17.0088125 7.20093441 44.529649"></polygon>
                                    </g>
                                </g>
                                <g id="s-link" transform="translate(0.000000, 344.615385)">
                                    <polygon id="s" points="18.6234818 0 30.0460291 44.529649 0.141411822 17.0088125 37.1055517 17.0088125 7.20093441 44.529649"></polygon>
                                </g>
                            </g>
                            <g id="s4" transform="translate(40.000000, 43.076923)">
                                <polygon id="s" points="18.6234818 0 30.0460291 44.529649 0.141411822 17.0088125 37.1055517 17.0088125 7.20093441 44.529649"></polygon>
                                <g id="s-link" transform="translate(0.000000, 86.153846)">
                                    <polygon id="s" points="18.6234818 0 30.0460291 44.529649 0.141411822 17.0088125 37.1055517 17.0088125 7.20093441 44.529649"></polygon>
                                </g>
                                <g id="s-link" transform="translate(0.000000, 172.307692)">
                                    <polygon id="s" points="18.6234818 0 30.0460291 44.529649 0.141411822 17.0088125 37.1055517 17.0088125 7.20093441 44.529649"></polygon>
                                </g>
                                <g id="s-link" transform="translate(0.000000, 258.461538)">
                                    <polygon id="s" points="18.6234818 0 30.0460291 44.529649 0.141411822 17.0088125 37.1055517 17.0088125 7.20093441 44.529649"></polygon>
                                </g>
                            </g>
                        </g>
                        <g id="s9" transform="translate(80.000000, 0.000000)">
                            <g id="s5">
                                <g id="s4">
                                    <polygon id="s" points="18.6234818 0 30.0460291 44.529649 0.141411822 17.0088125 37.1055517 17.0088125 7.20093441 44.529649"></polygon>
                                    <g id="s-link" transform="translate(0.000000, 86.153846)">
                                        <polygon id="s" points="18.6234818 0 30.0460291 44.529649 0.141411822 17.0088125 37.1055517 17.0088125 7.20093441 44.529649"></polygon>
                                    </g>
                                    <g id="s-link" transform="translate(0.000000, 172.307692)">
                                        <polygon id="s" points="18.6234818 0 30.0460291 44.529649 0.141411822 17.0088125 37.1055517 17.0088125 7.20093441 44.529649"></polygon>
                                    </g>
                                    <g id="s-link" transform="translate(0.000000, 258.461538)">
                                        <polygon id="s" points="18.6234818 0 30.0460291 44.529649 0.141411822 17.0088125 37.1055517 17.0088125 7.20093441 44.529649"></polygon>
                                    </g>
                                </g>
                                <g id="s-link" transform="translate(0.000000, 344.615385)">
                                    <polygon id="s" points="18.6234818 0 30.0460291 44.529649 0.141411822 17.0088125 37.1055517 17.0088125 7.20093441 44.529649"></polygon>
                                </g>
                            </g>
                            <g id="s4" transform="translate(40.000000, 43.076923)">
                                <polygon id="s" points="18.6234818 0 30.0460291 44.529649 0.141411822 17.0088125 37.1055517 17.0088125 7.20093441 44.529649"></polygon>
                                <g id="s-link" transform="translate(0.000000, 86.153846)">
                                    <polygon id="s" points="18.6234818 0 30.0460291 44.529649 0.141411822 17.0088125 37.1055517 17.0088125 7.20093441 44.529649"></polygon>
                                </g>
                                <g id="s-link" transform="translate(0.000000, 172.307692)">
                                    <polygon id="s" points="18.6234818 0 30.0460291 44.529649 0.141411822 17.0088125 37.1055517 17.0088125 7.20093441 44.529649"></polygon>
                                </g>
                                <g id="s-link" transform="translate(0.000000, 258.461538)">
                                    <polygon id="s" points="18.6234818 0 30.0460291 44.529649 0.141411822 17.0088125 37.1055517 17.0088125 7.20093441 44.529649"></polygon>
                                </g>
                            </g>
                        </g>
                    </g>
                    <g id="s18" transform="translate(160.000000, 0.000000)">
                        <g id="s9">
                            <g id="s5">
                                <g id="s4">
                                    <polygon id="s" points="18.6234818 0 30.0460291 44.529649 0.141411822 17.0088125 37.1055517 17.0088125 7.20093441 44.529649"></polygon>
                                    <g id="s-link" transform="translate(0.000000, 86.153846)">
                                        <polygon id="s" points="18.6234818 0 30.0460291 44.529649 0.141411822 17.0088125 37.1055517 17.0088125 7.20093441 44.529649"></polygon>
                                    </g>
                                    <g id="s-link" transform="translate(0.000000, 172.307692)">
                                        <polygon id="s" points="18.6234818 0 30.0460291 44.529649 0.141411822 17.0088125 37.1055517 17.0088125 7.20093441 44.529649"></polygon>
                                    </g>
                                    <g id="s-link" transform="translate(0.000000, 258.461538)">
                                        <polygon id="s" points="18.6234818 0 30.0460291 44.529649 0.141411822 17.0088125 37.1055517 17.0088125 7.20093441 44.529649"></polygon>
                                    </g>
                                </g>
                                <g id="s-link" transform="translate(0.000000, 344.615385)">
                                    <polygon id="s" points="18.6234818 0 30.0460291 44.529649 0.141411822 17.0088125 37.1055517 17.0088125 7.20093441 44.529649"></polygon>
                                </g>
                            </g>
                            <g id="s4" transform="translate(40.000000, 43.076923)">
                                <polygon id="s" points="18.6234818 0 30.0460291 44.529649 0.141411822 17.0088125 37.1055517 17.0088125 7.20093441 44.529649"></polygon>
                                <g id="s-link" transform="translate(0.000000, 86.153846)">
                                    <polygon id="s" points="18.6234818 0 30.0460291 44.529649 0.141411822 17.0088125 37.1055517 17.0088125 7.20093441 44.529649"></polygon>
                                </g>
                                <g id="s-link" transform="translate(0.000000, 172.307692)">
                                    <polygon id="s" points="18.6234818 0 30.0460291 44.529649 0.141411822 17.0088125 37.1055517 17.0088125 7.20093441 44.529649"></polygon>
                                </g>
                                <g id="s-link" transform="translate(0.000000, 258.461538)">
                                    <polygon id="s" points="18.6234818 0 30.0460291 44.529649 0.141411822 17.0088125 37.1055517 17.0088125 7.20093441 44.529649"></polygon>
                                </g>
                            </g>
                        </g>
                        <g id="s9" transform="translate(80.000000, 0.000000)">
                            <g id="s5">
                                <g id="s4">
                                    <polygon id="s" points="18.6234818 0 30.0460291 44.529649 0.141411822 17.0088125 37.1055517 17.0088125 7.20093441 44.529649"></polygon>
                                    <g id="s-link" transform="translate(0.000000, 86.153846)">
                                        <polygon id="s" points="18.6234818 0 30.0460291 44.529649 0.141411822 17.0088125 37.1055517 17.0088125 7.20093441 44.529649"></polygon>
                                    </g>
                                    <g id="s-link" transform="translate(0.000000, 172.307692)">
                                        <polygon id="s" points="18.6234818 0 30.0460291 44.529649 0.141411822 17.0088125 37.1055517 17.0088125 7.20093441 44.529649"></polygon>
                                    </g>
                                    <g id="s-link" transform="translate(0.000000, 258.461538)">
                                        <polygon id="s" points="18.6234818 0 30.0460291 44.529649 0.141411822 17.0088125 37.1055517 17.0088125 7.20093441 44.529649"></polygon>
                                    </g>
                                </g>
                                <g id="s-link" transform="translate(0.000000, 344.615385)">
                                    <polygon id="s" points="18.6234818 0 30.0460291 44.529649 0.141411822 17.0088125 37.1055517 17.0088125 7.20093441 44.529649"></polygon>
                                </g>
                            </g>
                            <g id="s4" transform="translate(40.000000, 43.076923)">
                                <polygon id="s" points="18.6234818 0 30.0460291 44.529649 0.141411822 17.0088125 37.1055517 17.0088125 7.20093441 44.529649"></polygon>
                                <g id="s-link" transform="translate(0.000000, 86.153846)">
                                    <polygon id="s" points="18.6234818 0 30.0460291 44.529649 0.141411822 17.0088125 37.1055517 17.0088125 7.20093441 44.529649"></polygon>
                                </g>
                                <g id="s-link" transform="translate(0.000000, 172.307692)">
                                    <polygon id="s" points="18.6234818 0 30.0460291 44.529649 0.141411822 17.0088125 37.1055517 17.0088125 7.20093441 44.529649"></polygon>
                                </g>
                                <g id="s-link" transform="translate(0.000000, 258.461538)">
                                    <polygon id="s" points="18.6234818 0 30.0460291 44.529649 0.141411822 17.0088125 37.1055517 17.0088125 7.20093441 44.529649"></polygon>
                                </g>
                            </g>
                        </g>
                    </g>
                    <g id="s9" transform="translate(320.000000, 0.000000)">
                        <g id="s5">
                            <g id="s4">
                                <polygon id="s" points="18.6234818 0 30.0460291 44.529649 0.141411822 17.0088125 37.1055517 17.0088125 7.20093441 44.529649"></polygon>
                                <g id="s-link" transform="translate(0.000000, 86.153846)">
                                    <polygon id="s" points="18.6234818 0 30.0460291 44.529649 0.141411822 17.0088125 37.1055517 17.0088125 7.20093441 44.529649"></polygon>
                                </g>
                                <g id="s-link" transform="translate(0.000000, 172.307692)">
                                    <polygon id="s" points="18.6234818 0 30.0460291 44.529649 0.141411822 17.0088125 37.1055517 17.0088125 7.20093441 44.529649"></polygon>
                                </g>
                                <g id="s-link" transform="translate(0.000000, 258.461538)">
                                    <polygon id="s" points="18.6234818 0 30.0460291 44.529649 0.141411822 17.0088125 37.1055517 17.0088125 7.20093441 44.529649"></polygon>
                                </g>
                            </g>
                            <g id="s-link" transform="translate(0.000000, 344.615385)">
                                <polygon id="s" points="18.6234818 0 30.0460291 44.529649 0.141411822 17.0088125 37.1055517 17.0088125 7.20093441 44.529649"></polygon>
                            </g>
                        </g>
                        <g id="s4" transform="translate(40.000000, 43.076923)">
                            <polygon id="s" points="18.6234818 0 30.0460291 44.529649 0.141411822 17.0088125 37.1055517 17.0088125 7.20093441 44.529649"></polygon>
                            <g id="s-link" transform="translate(0.000000, 86.153846)">
                                <polygon id="s" points="18.6234818 0 30.0460291 44.529649 0.141411822 17.0088125 37.1055517 17.0088125 7.20093441 44.529649"></polygon>
                            </g>
                            <g id="s-link" transform="translate(0.000000, 172.307692)">
                                <polygon id="s" points="18.6234818 0 30.0460291 44.529649 0.141411822 17.0088125 37.1055517 17.0088125 7.20093441 44.529649"></polygon>
                            </g>
                            <g id="s-link" transform="translate(0.000000, 258.461538)">
                                <polygon id="s" points="18.6234818 0 30.0460291 44.529649 0.141411822 17.0088125 37.1055517 17.0088125 7.20093441 44.529649"></polygon>
                            </g>
                        </g>
                    </g>
                    <g id="s5" transform="translate(400.000000, 0.000000)">
                        <g id="s4">
                            <polygon id="s" points="18.6234818 0 30.0460291 44.529649 0.141411822 17.0088125 37.1055517 17.0088125 7.20093441 44.529649"></polygon>
                            <g id="s-link" transform="translate(0.000000, 86.153846)">
                                <polygon id="s" points="18.6234818 0 30.0460291 44.529649 0.141411822 17.0088125 37.1055517 17.0088125 7.20093441 44.529649"></polygon>
                            </g>
                            <g id="s-link" transform="translate(0.000000, 172.307692)">
                                <polygon id="s" points="18.6234818 0 30.0460291 44.529649 0.141411822 17.0088125 37.1055517 17.0088125 7.20093441 44.529649"></polygon>
                            </g>
                            <g id="s-link" transform="translate(0.000000, 258.461538)">
                                <polygon id="s" points="18.6234818 0 30.0460291 44.529649 0.141411822 17.0088125 37.1055517 17.0088125 7.20093441 44.529649"></polygon>
                            </g>
                        </g>
                        <g id="s-link" transform="translate(0.000000, 344.615385)">
                            <polygon id="s" points="18.6234818 0 30.0460291 44.529649 0.141411822 17.0088125 37.1055517 17.0088125 7.20093441 44.529649"></polygon>
                        </g>
                    </g>
                </g>
            </g>
        </g>
    </g>
</svg>