<svg xmlns="http://www.w3.org/2000/svg" version="1.1" x="0" y="0" viewBox="0 0 24 24" xml:space="preserve" style="fill:#58d68e"><g transform="matrix(1.249999999999999,0,0,1.249999999999999,-2.9997746944427295,-3.1248679161071653)"><path d="M12 4c-4.97 0-9 3-9 8a7.5 7.5 0 0 0 1.95 5.211 4.778 4.778 0 0 1-1.78 2.941.478.478 0 0 0 .29.84c1.42.05 3.61-.14 4.95-1.57A10.985 10.985 0 0 0 12 20c4.97 0 9-3 9-8s-4.03-8-9-8zm3.53 6.53-4 4a.748.748 0 0 1-1.06 0l-2-2a.75.75 0 0 1 1.06-1.06L11 12.939l3.47-3.469a.75.75 0 0 1 1.06 1.06z"></path></g></svg>
