<svg xmlns="http://www.w3.org/2000/svg" version="1.1" x="0" y="0" viewBox="0 0 64 64" xml:space="preserve"><path fill="#0093ff" d="M14.218 63.417a7.21 7.21 0 0 1-5.384-2.408c-1.996-2.211-2.42-5.379-1.072-8.063l1.239-2.478C3.636 45.006.583 37.71.583 30.251.583 13.892 14.677.583 32 .583s31.417 13.309 31.417 29.668c0 16.364-14.094 29.677-31.417 29.677-1.884 0-3.832-.172-5.797-.513l-9.45 3.545a7.085 7.085 0 0 1-2.535.457z"></path><path d="M17.492 44.349c-1.223 0-2.323-.423-3.184-1.224-.635-.589-1.393-1.664-1.393-3.438 0-.838.159-1.881.487-3.19.583-2.352 1.252-7.486 1.988-15.258.146-1.015.612-1.851 1.394-2.545.791-.702 1.725-1.072 2.701-1.072 2.642 0 4.349 1.886 4.349 4.804 0 .872-.149 2.079-.469 3.799-.069.363-.13.704-.183 1.022a98.057 98.057 0 0 0 3.728-.259 29.778 29.778 0 0 0 2.094-.238c.054-.319.119-.747.191-1.313.189-1.478.286-3.081.286-4.764 0-.973.463-1.901 1.376-2.759 1.708-1.607 4.337-1.626 5.984-.047a4.09 4.09 0 0 1 1.279 3.02c0 .891-.181 2.267-.569 4.331v.001c-.383 2.019-.709 4.65-.969 7.821-.329 3.983-.398 5.651-.398 6.349 0 1.179-.486 2.272-1.446 3.252-1.782 1.812-3.965 1.99-5.845.481a3.956 3.956 0 0 1-1.505-3.135c0-.313.031-.881.407-3.65.083-.604.151-1.145.206-1.617l-.104.008c-1.417.122-2.346.179-2.912.179-.127 0-.634.015-2.584.15l-.44.032a42.78 42.78 0 0 0-.15 2.143c-.055 1.577-.292 2.969-.706 4.118-.939 2.61-2.667 2.999-3.613 2.999zM43.521 44.284c-1.926 0-3.983-1.271-3.983-4.837 0-1.565.218-3.467.647-5.649.076-.412.149-.827.215-1.216.335-1.896.369-2.27.372-2.306-.002-.989.262-1.935.781-2.734a3.624 3.624 0 0 1 3.086-1.686c1.13 0 2.081.319 2.828.949.841.708 1.305 1.661 1.305 2.682 0 .435-.067 1.066-.557 2.721l-.067.244c-.423 1.487-.676 2.679-.755 3.549a26.389 26.389 0 0 0-.128 2.267c0 .243.037.714.216 1.579.067.397.085.646.085.846 0 1.191-.755 2.004-1.322 2.511-.787.705-1.73 1.08-2.723 1.08zM46.56 24.206c-1.154 0-2.205-.474-3.039-1.369-.789-.849-1.206-1.831-1.206-2.839 0-1.237.444-2.321 1.285-3.135.832-.805 1.934-1.212 3.274-1.212 1.158 0 2.184.394 2.965 1.138a3.91 3.91 0 0 1 1.243 2.857c0 1.275-.581 2.464-1.636 3.347l-.002.001c-.975.815-1.92 1.212-2.884 1.212z" fill="#ecebeb"></path></svg>
