<svg xmlns="http://www.w3.org/2000/svg" viewBox="0 0 24 24"><path fill-rule="evenodd" d="M20 11.197v-.004C20.007 8.13 16.818 5 12.005 5 7.19 5 4 8.13 4 11.197c0 1.13.399 2.218 1.146 3.176l.171.21.048.07c.331.484.537 1.075.537 1.724 0 .181-.026.327-.03.347v.002l-.021.103c.095-.042.188-.083.23-.1l.038-.015.04-.014a4.3 4.3 0 0 1 1.35-.23c.372 0 .761.052 1.143.174l.035.011.113.041c.902.313 1.965.433 3.247.433 4.889 0 7.953-2.927 7.953-5.932M8.133 18.582l-.088-.032a1.8 1.8 0 0 0-.537-.08c-.208 0-.495.048-.672.112-.052.02-.386.17-.433.19l-2.636 1.17-.084.031A.8.8 0 0 1 3.49 20c-.041 0-.083 0-.125-.01-.286-.06-.463-.298-.396-.532l.231-.747.009-.028.034-.11.045-.148.13-.423.034-.108c.227-.744.45-1.48.45-1.517 0-.218-.068-.42-.188-.595l-.13-.16C2.584 14.349 2 12.829 2 11.198 2 6.671 6.476 3 12.005 3 17.53 3 22.01 6.67 22 11.197c0 4.526-4.43 7.932-9.953 7.932-1.392 0-2.71-.128-3.914-.547" clip-rule="evenodd"></path></svg>
