<svg xmlns="http://www.w3.org/2000/svg" viewBox="0 0 17 16"><path d="M7.993 1.333c-3.68 0-6.66 2.987-6.66 6.667 0 3.68 2.98 6.667 6.66 6.667 3.687 0 6.674-2.987 6.674-6.667 0-3.68-2.987-6.667-6.674-6.667zm4.62 4h-1.966c-.214-.833-.52-1.633-.92-2.373 1.226.42 2.246 1.273 2.886 2.373zM8 2.693c.553.8.987 1.687 1.273 2.64H6.727c.286-.953.72-1.84 1.273-2.64zm-5.16 6.64C2.733 8.907 2.667 8.46 2.667 8c0-.46.066-.907.173-1.333h2.253C5.04 7.107 5 7.547 5 8c0 .453.04.893.093 1.333H2.84zm.547 1.334h1.966c.214.833.52 1.633.92 2.373-1.226-.42-2.246-1.267-2.886-2.373zm1.966-5.334H3.387c.64-1.106 1.66-1.953 2.886-2.373-.4.74-.706 1.54-.92 2.373zM8 13.307c-.553-.8-.987-1.687-1.273-2.64h2.546c-.286.953-.72 1.84-1.273 2.64zm1.56-3.974H6.44c-.06-.44-.107-.88-.107-1.333 0-.453.047-.9.107-1.333h3.12c.06.433.107.88.107 1.333 0 .453-.047.893-.107 1.333zm.167 3.707c.4-.74.706-1.54.92-2.373h1.966c-.64 1.1-1.66 1.953-2.886 2.373zm1.18-3.707C10.96 8.893 11 8.453 11 8c0-.453-.04-.893-.093-1.333h2.253c.107.426.173.873.173 1.333 0 .46-.066.907-.173 1.333h-2.253z" transform="translate(-767 -199) translate(108 181) translate(659 17) translate(.018) translate(0 1)"></path></svg>
