<svg xmlns="http://www.w3.org/2000/svg" viewBox="0 0 24 24" ><path d="M7.234 21.303a9.5 9.5 0 0 0 3.68 1.015v-1.98q-3.143-.49-5.209-2.848-2.067-2.357-2.066-5.5 0-3.158 2.078-5.523 2.079-2.364 5.223-2.84V1.633q-3.98.4-6.631 3.363-2.65 2.963-2.65 6.993 0 2.01.702 3.82a10.7 10.7 0 0 0 1.94 3.216 9.9 9.9 0 0 0 2.933 2.278m5.88-.966v1.98a9 9 0 0 0 2.944-.692 11 11 0 0 0 2.6-1.556l-1.453-1.454a7.9 7.9 0 0 1-1.927 1.142 8.6 8.6 0 0 1-2.163.58M17.23 5.36q-.936-.66-1.965-1.11a8.7 8.7 0 0 0-2.15-.623V1.633q1.535.16 2.937.744 1.403.585 2.606 1.53zm1.425 11.755 1.428 1.404a9.6 9.6 0 0 0 1.535-2.576q.564-1.408.725-2.943h-2.005a9.7 9.7 0 0 1-.575 2.163 8 8 0 0 1-1.108 1.952m1.668-6.165a10.2 10.2 0 0 0-.567-2.175 7.4 7.4 0 0 0-1.101-1.94l1.514-1.378a9.9 9.9 0 0 1 1.485 2.588q.54 1.396.689 2.905zM11.18 6.888h1.656v4.282h4.285v1.66h-4.285v4.284H11.18V12.83H6.89v-1.66h4.29z"></path></svg>
