<svg xmlns="http://www.w3.org/2000/svg" viewBox="0 0 24 24" fill="primary"><path d="M7.167 16.108q1.07 0 2.083.24 1.013.239 2.015.716V7.096a7.8 7.8 0 0 0-1.98-.82 8.35 8.35 0 0 0-3.745-.114 8 8 0 0 0-1.56.478v10.015a10.3 10.3 0 0 1 1.583-.41 9.3 9.3 0 0 1 1.604-.137m5.919.956a10 10 0 0 1 2.015-.716q1.012-.24 2.082-.24.819 0 1.605.137.784.135 1.582.41V6.64a8 8 0 0 0-1.56-.478 8.4 8.4 0 0 0-3.744.114 7.8 7.8 0 0 0-1.98.82zm-.888 2.891a9.6 9.6 0 0 0-2.39-1.366 7.2 7.2 0 0 0-2.64-.5q-.935 0-1.845.25a7.8 7.8 0 0 0-1.73.706 1.06 1.06 0 0 1-1.07-.034q-.522-.308-.523-.922V6.139q0-.34.148-.625t.467-.444A10.1 10.1 0 0 1 7.145 4a10 10 0 0 1 2.606.341q1.263.342 2.424 1.048 1.16-.684 2.425-1.037A9.7 9.7 0 0 1 17.206 4q1.183 0 2.332.273 1.151.273 2.197.797.32.159.468.444.147.285.147.626v12.04q0 .591-.512.876t-1.081-.011a7.8 7.8 0 0 0-1.73-.706 7.069 7.069 0 0 0-4.472.25 9.3 9.3 0 0 0-2.357 1.366"></path></svg>
