<svg xmlns="http://www.w3.org/2000/svg" viewBox="0 0 24 24"><path fill-rule="evenodd" d="M5.146 5.874c-.298.304-.346.517-.346.626s.048.322.346.626c.299.306.78.627 1.453.917C7.936 8.62 9.846 9 12 9s4.064-.38 5.401-.957c.672-.29 1.154-.611 1.453-.917.299-.304.346-.517.346-.626s-.047-.322-.346-.626c-.299-.306-.78-.627-1.453-.917C16.064 4.38 14.154 4 12 4s-4.064.38-5.401.957c-.672.29-1.154.611-1.453.917M19.2 9.3c-.35.227-.736.429-1.146.606C16.46 10.596 14.319 11 12 11s-4.46-.404-6.054-1.093A8 8 0 0 1 4.8 9.3V12c0 .109.048.322.346.626.299.306.78.627 1.453.917 1.337.578 3.247.957 5.401.957s4.064-.38 5.401-.957c.672-.29 1.154-.611 1.453-.917.299-.304.346-.517.346-.626zM21 12V6.5c0-.858-.406-1.566-.927-2.098-.521-.533-1.225-.966-2.02-1.309C16.46 2.404 14.32 2 12 2s-4.46.404-6.054 1.093c-.794.343-1.498.776-2.019 1.309S3 5.642 3 6.5v11c0 .858.406 1.566.927 2.099.521.532 1.225.965 2.02 1.308C7.54 21.596 9.68 22 12 22s4.46-.404 6.054-1.093c.794-.343 1.498-.776 2.019-1.308.521-.533.927-1.241.927-2.099zm-1.8 2.801c-.35.227-.736.428-1.146.606C16.46 16.096 14.319 16.5 12 16.5s-4.46-.404-6.054-1.093A8 8 0 0 1 4.8 14.8V17.5c0 .109.048.322.346.626.299.306.78.627 1.453.917C7.936 19.62 9.846 20 12 20s4.064-.38 5.401-.957c.672-.29 1.154-.611 1.453-.917.299-.304.346-.517.346-.626z" clip-rule="evenodd"></path></svg>
