<svg xmlns="http://www.w3.org/2000/svg" viewBox="0 0 17 16" fill="subdued"><path d="M8.011 1.333A6.664 6.664 0 0 0 1.351 8c0 3.68 2.98 6.667 6.66 6.667A6.67 6.67 0 0 0 14.685 8a6.67 6.67 0 0 0-6.674-6.667m4.62 4h-1.966a10.5 10.5 0 0 0-.92-2.373 5.35 5.35 0 0 1 2.886 2.373m-4.613-2.64c.553.8.987 1.687 1.273 2.64H6.745c.286-.953.72-1.84 1.273-2.64m-5.16 6.64A5.5 5.5 0 0 1 2.685 8c0-.46.066-.907.173-1.333h2.253c-.053.44-.093.88-.093 1.333s.04.893.093 1.333zm.547 1.334h1.966c.214.833.52 1.633.92 2.373a5.33 5.33 0 0 1-2.886-2.373m1.966-5.334H3.405A5.33 5.33 0 0 1 6.291 2.96c-.4.74-.706 1.54-.92 2.373m2.647 7.974a9.4 9.4 0 0 1-1.273-2.64h2.546a9.4 9.4 0 0 1-1.273 2.64m1.56-3.974h-3.12c-.06-.44-.107-.88-.107-1.333s.047-.9.107-1.333h3.12c.06.433.107.88.107 1.333s-.047.893-.107 1.333m.167 3.707c.4-.74.706-1.54.92-2.373h1.966a5.35 5.35 0 0 1-2.886 2.373m1.18-3.707c.053-.44.093-.88.093-1.333s-.04-.893-.093-1.333h2.253c.107.426.173.873.173 1.333s-.066.907-.173 1.333z"></path></svg>
