<svg viewBox="0 0 142 70" fill="none" xmlns="http://www.w3.org/2000/svg"><g clip-path="url(#clip0_358_14386)"><path d="M6.6 70C3.50721 70 0.976687 67.4884 1.22375 64.4055C2.54743 47.8882 9.70004 32.305 21.5025 20.5025C33.305 8.70004 48.8882 1.54743 65.4055 0.223747C68.4884 -0.0233135 71 2.50721 71 5.6C71 8.6928 68.4869 11.1723 65.4081 11.4663C51.8655 12.7596 39.1234 18.7209 29.4221 28.4221C19.7209 38.1234 13.7596 50.8655 12.4663 64.4081C12.1723 67.4869 9.6928 70 6.6 70Z" fill="#D3DBE5" stroke="#F5F7F9" stroke-width="2"></path><path d="M71 5.6C71 2.50721 73.5113 -0.0233002 76.5943 0.223825C88.2771 1.16032 99.5407 5.01672 109.346 11.4372C111.933 13.1315 112.367 16.6702 110.471 19.114C108.576 21.5578 105.07 21.9768 102.457 20.3221C94.6517 15.3794 85.7888 12.3449 76.5918 11.4664C73.513 11.1723 71 8.6928 71 5.6Z" fill="#D3DBE5" stroke="#F5F5F5" stroke-width="2"></path><path d="M110.649 19.2521C112.553 16.815 116.09 16.367 118.367 18.4597C124.268 23.8829 129.194 30.2799 132.93 37.3705C134.372 40.1068 133.035 43.4118 130.192 44.6302C127.35 45.8485 124.081 44.5157 122.597 41.8018C119.657 36.4218 115.894 31.5344 111.443 27.3175C109.198 25.1902 108.744 21.6893 110.649 19.2521Z" fill="#D3DBE5" stroke="#F5F7F9" stroke-width="2"></path><path d="M130.281 44.8369C133.127 43.6285 136.438 44.9513 137.415 47.8857C139.248 53.392 140.39 59.1051 140.813 64.8932C141.039 67.9777 138.491 70.4712 135.398 70.4496C132.306 70.428 129.844 67.8979 129.571 64.8172C129.194 60.5582 128.354 56.353 127.065 52.2762C126.133 49.3273 127.434 46.0454 130.281 44.8369Z" fill="#D3DBE5" stroke="#F5F7F9" stroke-width="2"></path><g filter="url(#filter0_d_358_14386)"><rect x="3" y="45" width="12" height="12" rx="6" stroke="#ACB8CB" stroke-width="4"></rect><path d="M9 46.5C6.516 46.5 4.5 48.516 4.5 51C4.5 53.484 6.516 55.5 9 55.5C11.484 55.5 13.5 53.484 13.5 51C13.5 48.516 11.484 46.5 9 46.5Z" fill="white"></path></g></g><defs><filter id="filter0_d_358_14386" x="-7" y="38" width="32" height="32" filterUnits="userSpaceOnUse" color-interpolation-filters="sRGB"><feFlood flood-opacity="0" result="BackgroundImageFix"></feFlood><feColorMatrix in="SourceAlpha" type="matrix" values="0 0 0 0 0 0 0 0 0 0 0 0 0 0 0 0 0 0 127 0" result="hardAlpha"></feColorMatrix><feOffset dy="3"></feOffset><feGaussianBlur stdDeviation="4"></feGaussianBlur><feColorMatrix type="matrix" values="0 0 0 0 0 0 0 0 0 0.105882 0 0 0 0 0.278431 0 0 0 0.08 0"></feColorMatrix><feBlend mode="normal" in2="BackgroundImageFix" result="effect1_dropShadow_358_14386"></feBlend><feBlend mode="normal" in="SourceGraphic" in2="effect1_dropShadow_358_14386" result="shape"></feBlend></filter><clipPath id="clip0_358_14386"><rect width="70" height="142" fill="white" transform="translate(0 70) rotate(-90)"></rect></clipPath></defs></svg>
