<svg width="572" height="241" viewBox="0 0 572 241" fill="none" xmlns="http://www.w3.org/2000/svg">
    <path fill-rule="evenodd" clip-rule="evenodd" d="M1327.95 -207.574C1301.46 -175.887 1263.7 -141.49 1213.72 -103.876C1165.05 -67.2467 1127.86 -34.1018 1099.91 -4.55121C1100.19 -4.21017 1100.48 -3.86832 1100.76 -3.52563L1092.86 3.02765L1100.76 -3.52557C1156.4 63.5149 1178.51 123.943 1163.72 172.867C1147.92 225.125 1097.36 244.032 1055.88 240.289C1013.61 236.473 968.201 208.955 955.137 155.848C944.249 111.585 958.326 59.2488 999.077 1.42398C915.243 -59.4856 802.803 -54.0391 691.027 -7.01675C567.709 44.8606 458.66 142.531 414.289 229.403L345.397 203.787C350.854 181.464 376.13 37.5057 381.915 -10.6177C387.795 -59.521 381.774 -96.7092 369.216 -122.426C357.101 -147.237 338.279 -162.952 313.225 -169.972C260.088 -184.86 167.665 -162.569 47.0301 -63.2657L0 -120.399C125.895 -224.032 243.941 -266.234 333.19 -241.228C379.329 -228.3 414.679 -197.97 435.712 -154.896C456.303 -112.728 462.408 -60.1908 455.387 -1.7851C453.444 14.3719 449.455 40.5974 444.727 69.5922C504.923 10.8004 581.559 -41.2473 662.332 -75.2268C787.116 -127.721 933.142 -141.158 1046.41 -55.6819C1077.85 -88.8801 1118.26 -124.649 1169.23 -163.003C1216.62 -198.671 1249.6 -229.228 1271.17 -255.034C1293.01 -281.165 1301.14 -300.023 1303.04 -312.402C1304.65 -322.874 1302.21 -330.554 1295.48 -338.371C1287.59 -347.535 1273.03 -357.445 1249.65 -366.633C1202.91 -385.001 1133.76 -395.631 1055.12 -400.228C977.311 -404.776 893.434 -403.267 819.116 -399.026L814.9 -472.905C891.084 -477.254 977.954 -478.865 1059.44 -474.102C1140.09 -469.387 1218.78 -458.274 1276.71 -435.505C1305.67 -424.124 1332.66 -408.617 1351.57 -386.644C1371.64 -363.325 1381.24 -334.15 1376.18 -301.177C1371.42 -270.112 1354.16 -238.936 1327.95 -207.574ZM1052.47 54.498C1025.32 96.5129 1023.48 123.886 1027 138.172C1031.03 154.568 1045.06 165.011 1062.53 166.588C1080.81 168.237 1090.31 159.969 1092.88 151.458C1094.61 145.75 1095.52 134.694 1088.97 116.384C1083.2 100.237 1072 79.6252 1052.47 54.498Z" fill="#64ED80"/>
</svg>
